# Blender 4.0.2
# www.blender.org
mtllib chess_PawnUI.mtl
o Circle
v 0.000000 -0.007327 -0.129676
v -0.025299 -0.007327 -0.127185
v -0.049625 -0.007327 -0.119805
v -0.072044 -0.007327 -0.107822
v -0.091695 -0.007327 -0.091695
v -0.107822 -0.007327 -0.072044
v -0.119805 -0.007327 -0.049625
v -0.127185 -0.007327 -0.025299
v -0.129676 -0.007327 0.000000
v -0.127185 -0.007327 0.025299
v -0.119805 -0.007327 0.049625
v -0.107822 -0.007327 0.072044
v -0.091695 -0.007327 0.091695
v -0.072044 -0.007327 0.107822
v -0.049625 -0.007327 0.119805
v -0.025299 -0.007327 0.127185
v 0.000000 -0.007327 0.129676
v 0.025299 -0.007327 0.127185
v 0.049625 -0.007327 0.119805
v 0.072044 -0.007327 0.107822
v 0.091695 -0.007327 0.091695
v 0.107822 -0.007327 0.072044
v 0.119805 -0.007327 0.049625
v 0.127185 -0.007327 0.025299
v 0.129676 -0.007327 0.000000
v 0.127185 -0.007327 -0.025299
v 0.119805 -0.007327 -0.049625
v 0.107822 -0.007327 -0.072044
v 0.091695 -0.007327 -0.091695
v 0.072044 -0.007327 -0.107822
v 0.049625 -0.007327 -0.119805
v 0.025299 -0.007327 -0.127185
v 0.000000 0.002500 -0.106682
v -0.020813 0.002500 -0.104632
v -0.040825 0.002500 -0.098561
v -0.059269 0.002500 -0.088702
v -0.075435 0.002500 -0.075435
v -0.088702 0.002500 -0.059269
v -0.098561 0.002500 -0.040825
v -0.104632 0.002500 -0.020813
v -0.106682 0.002500 -0.000000
v -0.104632 0.002500 0.020813
v -0.098561 0.002500 0.040825
v -0.088702 0.002500 0.059269
v -0.075435 0.002500 0.075435
v -0.059269 0.002500 0.088702
v -0.040825 0.002500 0.098561
v -0.020813 0.002500 0.104632
v 0.000000 0.002500 0.106682
v 0.020813 0.002500 0.104632
v 0.040825 0.002500 0.098561
v 0.059269 0.002500 0.088702
v 0.075435 0.002500 0.075435
v 0.088702 0.002500 0.059269
v 0.098561 0.002500 0.040825
v 0.104632 0.002500 0.020813
v 0.106682 0.002500 -0.000000
v 0.104632 0.002500 -0.020813
v 0.098561 0.002500 -0.040825
v 0.088702 0.002500 -0.059269
v 0.075435 0.002500 -0.075435
v 0.059269 0.002500 -0.088702
v 0.040825 0.002500 -0.098561
v 0.020813 0.002500 -0.104632
v 0.000000 0.000000 -0.132808
v -0.025910 0.000000 -0.130256
v -0.050823 0.000000 -0.122698
v -0.073784 0.000000 -0.110426
v -0.093909 0.000000 -0.093909
v -0.110426 0.000000 -0.073784
v -0.122698 0.000000 -0.050823
v -0.130256 0.000000 -0.025910
v -0.132808 0.000000 0.000000
v -0.130256 0.000000 0.025910
v -0.122698 0.000000 0.050823
v -0.110426 0.000000 0.073784
v -0.093909 0.000000 0.093909
v -0.073784 0.000000 0.110426
v -0.050823 0.000000 0.122698
v -0.025910 0.000000 0.130256
v 0.000000 0.000000 0.132808
v 0.025910 0.000000 0.130256
v 0.050823 0.000000 0.122698
v 0.073784 0.000000 0.110426
v 0.093909 0.000000 0.093909
v 0.110426 0.000000 0.073784
v 0.122698 0.000000 0.050823
v 0.130256 0.000000 0.025910
v 0.132808 0.000000 0.000000
v 0.130256 0.000000 -0.025910
v 0.122698 0.000000 -0.050823
v 0.110426 0.000000 -0.073784
v 0.093909 0.000000 -0.093909
v 0.073784 0.000000 -0.110426
v 0.050823 0.000000 -0.122698
v 0.025910 0.000000 -0.130256
v 0.000000 0.009827 -0.109813
v -0.021423 0.009827 -0.107703
v -0.042024 0.009827 -0.101454
v -0.061009 0.009827 -0.091306
v -0.077650 0.009827 -0.077650
v -0.091306 0.009827 -0.061009
v -0.101454 0.009827 -0.042024
v -0.107703 0.009827 -0.021423
v -0.109813 0.009827 -0.000000
v -0.107703 0.009827 0.021423
v -0.101454 0.009827 0.042024
v -0.091306 0.009827 0.061009
v -0.077650 0.009827 0.077650
v -0.061009 0.009827 0.091306
v -0.042024 0.009827 0.101454
v -0.021423 0.009827 0.107703
v 0.000000 0.009827 0.109813
v 0.021423 0.009827 0.107703
v 0.042024 0.009827 0.101454
v 0.061009 0.009827 0.091306
v 0.077650 0.009827 0.077650
v 0.091306 0.009827 0.061009
v 0.101454 0.009827 0.042024
v 0.107703 0.009827 0.021423
v 0.109813 0.009827 -0.000000
v 0.107703 0.009827 -0.021423
v 0.101454 0.009827 -0.042024
v 0.091306 0.009827 -0.061009
v 0.077650 0.009827 -0.077650
v 0.061009 0.009827 -0.091306
v 0.042024 0.009827 -0.101454
v 0.021423 0.009827 -0.107703
vn -0.0000 -0.9195 -0.3930
vn 0.0767 -0.9195 -0.3854
vn 0.2183 -0.9195 0.3268
vn 0.1504 -0.9195 0.3631
vn -0.1504 -0.9195 0.3631
vn -0.2183 -0.9195 0.3268
vn -0.0767 -0.9195 -0.3854
vn 0.2779 -0.9195 0.2779
vn -0.0767 -0.9195 0.3854
vn -0.1504 -0.9195 -0.3631
vn 0.3268 -0.9195 0.2183
vn -0.0000 -0.9195 0.3930
vn -0.2183 -0.9195 -0.3268
vn 0.3631 -0.9195 0.1504
vn -0.2779 -0.9195 -0.2779
vn 0.3854 -0.9195 0.0767
vn -0.3268 -0.9195 -0.2183
vn 0.3930 -0.9195 -0.0000
vn -0.3631 -0.9195 -0.1504
vn 0.3854 -0.9195 -0.0767
vn -0.3854 -0.9195 -0.0767
vn 0.3631 -0.9195 -0.1504
vn -0.3930 -0.9195 -0.0000
vn 0.3268 -0.9195 -0.2183
vn -0.3854 -0.9195 0.0767
vn 0.2779 -0.9195 -0.2779
vn -0.3631 -0.9195 0.1504
vn 0.2183 -0.9195 -0.3268
vn -0.3268 -0.9195 0.2183
vn 0.1504 -0.9195 -0.3631
vn 0.0767 -0.9195 0.3854
vn -0.2779 -0.9195 0.2779
vn -0.0000 0.9195 0.3930
vn -0.0767 0.9195 0.3854
vn -0.2183 0.9195 -0.3268
vn -0.1504 0.9195 -0.3631
vn 0.1504 0.9195 -0.3631
vn 0.2183 0.9195 -0.3268
vn 0.0767 0.9195 0.3854
vn -0.2779 0.9195 -0.2779
vn 0.0767 0.9195 -0.3854
vn 0.1504 0.9195 0.3631
vn -0.3268 0.9195 -0.2183
vn -0.0000 0.9195 -0.3930
vn 0.2183 0.9195 0.3268
vn -0.3631 0.9195 -0.1504
vn 0.2779 0.9195 0.2779
vn -0.3854 0.9195 -0.0767
vn 0.3268 0.9195 0.2183
vn -0.3930 0.9195 -0.0000
vn 0.3631 0.9195 0.1504
vn -0.3854 0.9195 0.0767
vn 0.3854 0.9195 0.0767
vn -0.3631 0.9195 0.1504
vn 0.3930 0.9195 -0.0000
vn -0.3268 0.9195 0.2183
vn 0.3854 0.9195 -0.0767
vn -0.2779 0.9195 0.2779
vn 0.3631 0.9195 -0.1504
vn -0.2183 0.9195 0.3268
vn 0.3268 0.9195 -0.2183
vn -0.1504 0.9195 0.3631
vn -0.0767 0.9195 -0.3854
vn 0.2779 0.9195 -0.2779
vn -0.0000 -0.3930 -0.9195
vn -0.1794 -0.3930 -0.9019
vn -0.3519 -0.3930 -0.8495
vn -0.5109 -0.3930 -0.7646
vn -0.6502 -0.3930 -0.6502
vn -0.7646 -0.3930 -0.5109
vn -0.8495 -0.3930 -0.3519
vn -0.9019 -0.3930 -0.1794
vn -0.9195 -0.3930 -0.0000
vn -0.9019 -0.3930 0.1794
vn -0.8495 -0.3930 0.3519
vn -0.7646 -0.3930 0.5109
vn -0.6502 -0.3930 0.6502
vn -0.5109 -0.3930 0.7646
vn -0.3519 -0.3930 0.8495
vn -0.1794 -0.3930 0.9019
vn -0.0000 -0.3930 0.9195
vn 0.1794 -0.3930 0.9019
vn 0.3519 -0.3930 0.8495
vn 0.5109 -0.3930 0.7646
vn 0.6502 -0.3930 0.6502
vn 0.7646 -0.3930 0.5109
vn 0.8495 -0.3930 0.3519
vn 0.9019 -0.3930 0.1794
vn 0.9195 -0.3930 -0.0000
vn 0.9019 -0.3930 -0.1794
vn 0.8495 -0.3930 -0.3519
vn 0.7646 -0.3930 -0.5109
vn 0.6502 -0.3930 -0.6502
vn 0.5109 -0.3930 -0.7646
vn 0.3519 -0.3930 -0.8495
vn 0.1794 -0.3930 -0.9019
vn 0.1794 0.3930 0.9019
vn -0.0000 0.3930 0.9195
vn 0.3519 0.3930 0.8495
vn 0.5109 0.3930 0.7646
vn 0.6502 0.3930 0.6502
vn 0.7646 0.3930 0.5109
vn 0.8495 0.3930 0.3519
vn 0.9019 0.3930 0.1794
vn 0.9195 0.3930 -0.0000
vn 0.9019 0.3930 -0.1794
vn 0.8495 0.3930 -0.3519
vn 0.7646 0.3930 -0.5109
vn 0.6502 0.3930 -0.6502
vn 0.5109 0.3930 -0.7646
vn 0.3519 0.3930 -0.8495
vn 0.1794 0.3930 -0.9019
vn -0.0000 0.3930 -0.9195
vn -0.1794 0.3930 -0.9019
vn -0.3519 0.3930 -0.8495
vn -0.5109 0.3930 -0.7646
vn -0.6502 0.3930 -0.6502
vn -0.7646 0.3930 -0.5109
vn -0.8495 0.3930 -0.3519
vn -0.9019 0.3930 -0.1794
vn -0.9195 0.3930 -0.0000
vn -0.9019 0.3930 0.1794
vn -0.8495 0.3930 0.3519
vn -0.7646 0.3930 0.5109
vn -0.6502 0.3930 0.6502
vn -0.5109 0.3930 0.7646
vn -0.3519 0.3930 0.8495
vn -0.1794 0.3930 0.9019
vt 0.000000 0.000000
s 1
f 17/1/1 16/1/2 48/1/2 49/1/1
f 4/1/3 3/1/4 35/1/4 36/1/3
f 31/1/5 30/1/6 62/1/6 63/1/5
f 18/1/7 17/1/1 49/1/1 50/1/7
f 5/1/8 4/1/3 36/1/3 37/1/8
f 32/1/9 31/1/5 63/1/5 64/1/9
f 19/1/10 18/1/7 50/1/7 51/1/10
f 6/1/11 5/1/8 37/1/8 38/1/11
f 1/1/12 32/1/9 64/1/9 33/1/12
f 20/1/13 19/1/10 51/1/10 52/1/13
f 7/1/14 6/1/11 38/1/11 39/1/14
f 21/1/15 20/1/13 52/1/13 53/1/15
f 8/1/16 7/1/14 39/1/14 40/1/16
f 22/1/17 21/1/15 53/1/15 54/1/17
f 9/1/18 8/1/16 40/1/16 41/1/18
f 23/1/19 22/1/17 54/1/17 55/1/19
f 10/1/20 9/1/18 41/1/18 42/1/20
f 24/1/21 23/1/19 55/1/19 56/1/21
f 11/1/22 10/1/20 42/1/20 43/1/22
f 25/1/23 24/1/21 56/1/21 57/1/23
f 12/1/24 11/1/22 43/1/22 44/1/24
f 26/1/25 25/1/23 57/1/23 58/1/25
f 13/1/26 12/1/24 44/1/24 45/1/26
f 27/1/27 26/1/25 58/1/25 59/1/27
f 14/1/28 13/1/26 45/1/26 46/1/28
f 28/1/29 27/1/27 59/1/27 60/1/29
f 15/1/30 14/1/28 46/1/28 47/1/30
f 2/1/31 1/1/12 33/1/12 34/1/31
f 29/1/32 28/1/29 60/1/29 61/1/32
f 16/1/2 15/1/30 47/1/30 48/1/2
f 3/1/4 2/1/31 34/1/31 35/1/4
f 30/1/6 29/1/32 61/1/32 62/1/6
f 81/1/33 113/1/33 112/1/34 80/1/34
f 68/1/35 100/1/35 99/1/36 67/1/36
f 95/1/37 127/1/37 126/1/38 94/1/38
f 82/1/39 114/1/39 113/1/33 81/1/33
f 69/1/40 101/1/40 100/1/35 68/1/35
f 96/1/41 128/1/41 127/1/37 95/1/37
f 83/1/42 115/1/42 114/1/39 82/1/39
f 70/1/43 102/1/43 101/1/40 69/1/40
f 65/1/44 97/1/44 128/1/41 96/1/41
f 84/1/45 116/1/45 115/1/42 83/1/42
f 71/1/46 103/1/46 102/1/43 70/1/43
f 85/1/47 117/1/47 116/1/45 84/1/45
f 72/1/48 104/1/48 103/1/46 71/1/46
f 86/1/49 118/1/49 117/1/47 85/1/47
f 73/1/50 105/1/50 104/1/48 72/1/48
f 87/1/51 119/1/51 118/1/49 86/1/49
f 74/1/52 106/1/52 105/1/50 73/1/50
f 88/1/53 120/1/53 119/1/51 87/1/51
f 75/1/54 107/1/54 106/1/52 74/1/52
f 89/1/55 121/1/55 120/1/53 88/1/53
f 76/1/56 108/1/56 107/1/54 75/1/54
f 90/1/57 122/1/57 121/1/55 89/1/55
f 77/1/58 109/1/58 108/1/56 76/1/56
f 91/1/59 123/1/59 122/1/57 90/1/57
f 78/1/60 110/1/60 109/1/58 77/1/58
f 92/1/61 124/1/61 123/1/59 91/1/59
f 79/1/62 111/1/62 110/1/60 78/1/60
f 66/1/63 98/1/63 97/1/44 65/1/44
f 93/1/64 125/1/64 124/1/61 92/1/61
f 80/1/34 112/1/34 111/1/62 79/1/62
f 67/1/36 99/1/36 98/1/63 66/1/63
f 94/1/38 126/1/38 125/1/64 93/1/64
f 1/1/65 2/1/66 66/1/66 65/1/65
f 2/1/66 3/1/67 67/1/67 66/1/66
f 3/1/67 4/1/68 68/1/68 67/1/67
f 4/1/68 5/1/69 69/1/69 68/1/68
f 5/1/69 6/1/70 70/1/70 69/1/69
f 6/1/70 7/1/71 71/1/71 70/1/70
f 7/1/71 8/1/72 72/1/72 71/1/71
f 8/1/72 9/1/73 73/1/73 72/1/72
f 9/1/73 10/1/74 74/1/74 73/1/73
f 10/1/74 11/1/75 75/1/75 74/1/74
f 11/1/75 12/1/76 76/1/76 75/1/75
f 12/1/76 13/1/77 77/1/77 76/1/76
f 13/1/77 14/1/78 78/1/78 77/1/77
f 14/1/78 15/1/79 79/1/79 78/1/78
f 15/1/79 16/1/80 80/1/80 79/1/79
f 16/1/80 17/1/81 81/1/81 80/1/80
f 17/1/81 18/1/82 82/1/82 81/1/81
f 18/1/82 19/1/83 83/1/83 82/1/82
f 19/1/83 20/1/84 84/1/84 83/1/83
f 20/1/84 21/1/85 85/1/85 84/1/84
f 21/1/85 22/1/86 86/1/86 85/1/85
f 22/1/86 23/1/87 87/1/87 86/1/86
f 23/1/87 24/1/88 88/1/88 87/1/87
f 24/1/88 25/1/89 89/1/89 88/1/88
f 25/1/89 26/1/90 90/1/90 89/1/89
f 26/1/90 27/1/91 91/1/91 90/1/90
f 27/1/91 28/1/92 92/1/92 91/1/91
f 28/1/92 29/1/93 93/1/93 92/1/92
f 29/1/93 30/1/94 94/1/94 93/1/93
f 30/1/94 31/1/95 95/1/95 94/1/94
f 31/1/95 32/1/96 96/1/96 95/1/95
f 32/1/96 1/1/65 65/1/65 96/1/96
f 34/1/97 33/1/98 97/1/98 98/1/97
f 35/1/99 34/1/97 98/1/97 99/1/99
f 36/1/100 35/1/99 99/1/99 100/1/100
f 37/1/101 36/1/100 100/1/100 101/1/101
f 38/1/102 37/1/101 101/1/101 102/1/102
f 39/1/103 38/1/102 102/1/102 103/1/103
f 40/1/104 39/1/103 103/1/103 104/1/104
f 41/1/105 40/1/104 104/1/104 105/1/105
f 42/1/106 41/1/105 105/1/105 106/1/106
f 43/1/107 42/1/106 106/1/106 107/1/107
f 44/1/108 43/1/107 107/1/107 108/1/108
f 45/1/109 44/1/108 108/1/108 109/1/109
f 46/1/110 45/1/109 109/1/109 110/1/110
f 47/1/111 46/1/110 110/1/110 111/1/111
f 48/1/112 47/1/111 111/1/111 112/1/112
f 49/1/113 48/1/112 112/1/112 113/1/113
f 50/1/114 49/1/113 113/1/113 114/1/114
f 51/1/115 50/1/114 114/1/114 115/1/115
f 52/1/116 51/1/115 115/1/115 116/1/116
f 53/1/117 52/1/116 116/1/116 117/1/117
f 54/1/118 53/1/117 117/1/117 118/1/118
f 55/1/119 54/1/118 118/1/118 119/1/119
f 56/1/120 55/1/119 119/1/119 120/1/120
f 57/1/121 56/1/120 120/1/120 121/1/121
f 58/1/122 57/1/121 121/1/121 122/1/122
f 59/1/123 58/1/122 122/1/122 123/1/123
f 60/1/124 59/1/123 123/1/123 124/1/124
f 61/1/125 60/1/124 124/1/124 125/1/125
f 62/1/126 61/1/125 125/1/125 126/1/126
f 63/1/127 62/1/126 126/1/126 127/1/127
f 64/1/128 63/1/127 127/1/127 128/1/128
f 33/1/98 64/1/128 128/1/128 97/1/98
