# Blender 4.0.2
# www.blender.org
mtllib King_UI.mtl
o Circle.004
v 0.000000 -0.009109 -0.310960
v -0.054033 -0.007863 -0.280605
v -0.084155 -0.004503 -0.213249
v -0.092828 -0.000475 -0.149543
v -0.059193 0.002707 -0.059193
v -0.149543 -0.000475 -0.092828
v -0.213249 -0.004503 -0.084155
v -0.280605 -0.007863 -0.054033
v -0.310960 -0.009109 0.000000
v -0.280605 -0.007863 0.054033
v -0.213249 -0.004503 0.084155
v -0.149543 -0.000475 0.092828
v -0.059193 0.002707 0.059193
v -0.092828 -0.000475 0.149543
v -0.084155 -0.004503 0.213249
v -0.054033 -0.007863 0.280605
v 0.000000 -0.009109 0.310960
v 0.054033 -0.007863 0.280605
v 0.084155 -0.004503 0.213249
v 0.092828 -0.000475 0.149543
v 0.059193 0.002707 0.059193
v 0.149543 -0.000475 0.092828
v 0.213249 -0.004503 0.084155
v 0.280605 -0.007863 0.054033
v 0.310960 -0.009109 0.000000
v 0.280605 -0.007863 -0.054033
v 0.213249 -0.004503 -0.084155
v 0.149543 -0.000475 -0.092828
v 0.059193 0.002707 -0.059193
v 0.092828 -0.000475 -0.149543
v 0.084155 -0.004503 -0.213249
v 0.054033 -0.007863 -0.280605
v 0.000000 0.014139 -0.256561
v -0.044480 0.014139 -0.237643
v -0.074589 0.014248 -0.192690
v -0.086534 0.014680 -0.142061
v -0.054699 0.009836 -0.054699
v -0.142061 0.014680 -0.086534
v -0.192690 0.014248 -0.074589
v -0.237643 0.014139 -0.044480
v -0.256561 0.014139 -0.000000
v -0.237643 0.014139 0.044480
v -0.192690 0.014248 0.074589
v -0.142061 0.014680 0.086534
v -0.054699 0.009836 0.054699
v -0.086534 0.014680 0.142061
v -0.074589 0.014248 0.192690
v -0.044480 0.014139 0.237643
v 0.000000 0.014139 0.256561
v 0.044480 0.014139 0.237643
v 0.074589 0.014248 0.192690
v 0.086534 0.014680 0.142061
v 0.054699 0.009836 0.054699
v 0.142061 0.014680 0.086534
v 0.192690 0.014248 0.074589
v 0.237643 0.014139 0.044480
v 0.256561 0.014139 -0.000000
v 0.237643 0.014139 -0.044480
v 0.192690 0.014248 -0.074589
v 0.142061 0.014680 -0.086534
v 0.054699 0.009836 -0.054699
v 0.086534 0.014680 -0.142061
v 0.074589 0.014248 -0.192690
v 0.044480 0.014139 -0.237643
v 0.000000 -0.001822 -0.314182
v -0.056421 -0.000897 -0.283650
v -0.089269 0.001172 -0.215515
v -0.099925 0.003148 -0.149549
v -0.064122 0.006568 -0.064122
v -0.149549 0.003148 -0.099925
v -0.215515 0.001172 -0.089269
v -0.283650 -0.000897 -0.056421
v -0.314182 -0.001822 0.000000
v -0.283650 -0.000897 0.056421
v -0.215515 0.001172 0.089269
v -0.149549 0.003148 0.099925
v -0.064122 0.006568 0.064122
v -0.099925 0.003148 0.149549
v -0.089269 0.001172 0.215515
v -0.056421 -0.000897 0.283650
v 0.000000 -0.001822 0.314182
v 0.056421 -0.000897 0.283650
v 0.089269 0.001172 0.215515
v 0.099925 0.003148 0.149549
v 0.064122 0.006568 0.064122
v 0.149549 0.003148 0.099925
v 0.215515 0.001172 0.089269
v 0.283650 -0.000897 0.056421
v 0.314182 -0.001822 0.000000
v 0.283650 -0.000897 -0.056421
v 0.215515 0.001172 -0.089269
v 0.149549 0.003148 -0.099925
v 0.064122 0.006568 -0.064122
v 0.099925 0.003148 -0.149549
v 0.089269 0.001172 -0.215515
v 0.056421 -0.000897 -0.283650
v 0.000000 0.021427 -0.259784
v -0.047839 0.020775 -0.240503
v -0.080554 0.019221 -0.194473
v -0.093870 0.017363 -0.140486
v -0.059628 0.013696 -0.059628
v -0.140486 0.017363 -0.093870
v -0.194473 0.019221 -0.080554
v -0.240503 0.020775 -0.047839
v -0.259784 0.021427 -0.000000
v -0.240503 0.020775 0.047839
v -0.194473 0.019221 0.080554
v -0.140486 0.017363 0.093870
v -0.059628 0.013696 0.059628
v -0.093870 0.017363 0.140486
v -0.080554 0.019221 0.194473
v -0.047839 0.020775 0.240503
v 0.000000 0.021427 0.259784
v 0.047839 0.020775 0.240503
v 0.080554 0.019221 0.194473
v 0.093870 0.017363 0.140486
v 0.059628 0.013696 0.059628
v 0.140486 0.017363 0.093870
v 0.194473 0.019221 0.080554
v 0.240503 0.020775 0.047839
v 0.259784 0.021427 -0.000000
v 0.240503 0.020775 -0.047839
v 0.194473 0.019221 -0.080554
v 0.140486 0.017363 -0.093870
v 0.059628 0.013696 -0.059628
v 0.093870 0.017363 -0.140486
v 0.080554 0.019221 -0.194473
v 0.047839 0.020775 -0.240503
vn -0.0000 -0.9139 -0.4060
vn 0.2991 -0.8739 -0.3832
vn 0.4231 -0.8319 -0.3589
vn 0.8309 -0.5297 0.1705
vn 0.6430 -0.7108 0.2851
vn 0.7505 -0.6209 0.2265
vn -0.6430 -0.7108 0.2851
vn -0.8309 -0.5297 0.1705
vn -0.7505 -0.6209 0.2265
vn -0.2991 -0.8739 -0.3832
vn -0.4231 -0.8319 -0.3589
vn 0.9058 -0.2579 -0.3361
vn -0.2991 -0.8739 0.3832
vn -0.4231 -0.8319 0.3589
vn -0.6430 -0.7108 -0.2851
vn -0.7505 -0.6209 -0.2265
vn -0.3361 -0.2579 0.9058
vn -0.0000 -0.9139 0.4060
vn -0.8309 -0.5297 -0.1705
vn 0.2851 -0.7108 0.6430
vn 0.1705 -0.5297 0.8309
vn 0.2265 -0.6209 0.7505
vn -0.9058 -0.2579 0.3361
vn 0.3832 -0.8739 0.2991
vn 0.3589 -0.8319 0.4231
vn 0.3361 -0.2579 -0.9058
vn 0.4060 -0.9139 -0.0000
vn -0.2851 -0.7108 -0.6430
vn -0.1705 -0.5297 -0.8309
vn -0.2265 -0.6209 -0.7505
vn 0.3832 -0.8739 -0.2991
vn 0.3589 -0.8319 -0.4231
vn -0.3832 -0.8739 -0.2991
vn -0.3589 -0.8319 -0.4231
vn 0.2851 -0.7108 -0.6430
vn 0.2265 -0.6209 -0.7505
vn -0.4060 -0.9139 -0.0000
vn 0.1705 -0.5297 -0.8309
vn -0.3832 -0.8739 0.2991
vn -0.3589 -0.8319 0.4231
vn -0.3361 -0.2579 -0.9058
vn -0.2851 -0.7108 0.6430
vn -0.2265 -0.6209 0.7505
vn 0.9058 -0.2579 0.3361
vn -0.1705 -0.5297 0.8309
vn 0.6430 -0.7108 -0.2851
vn 0.8309 -0.5297 -0.1705
vn 0.7505 -0.6209 -0.2265
vn 0.2991 -0.8739 0.3832
vn 0.4231 -0.8319 0.3589
vn 0.3361 -0.2579 0.9058
vn -0.9058 -0.2579 -0.3361
vn -0.0000 0.9146 0.4044
vn -0.4215 0.8328 0.3589
vn -0.2997 0.8742 0.3821
vn -0.8287 0.5344 -0.1661
vn -0.7485 0.6242 -0.2238
vn -0.6418 0.7122 -0.2843
vn 0.6418 0.7122 -0.2843
vn 0.7485 0.6242 -0.2238
vn 0.8287 0.5344 -0.1661
vn 0.2997 0.8742 0.3821
vn 0.4215 0.8328 0.3589
vn -0.9020 0.2043 0.3803
vn 0.2997 0.8742 -0.3821
vn 0.4215 0.8328 -0.3589
vn 0.6418 0.7122 0.2843
vn 0.7485 0.6242 0.2238
vn 0.3803 0.2043 -0.9020
vn -0.0000 0.9146 -0.4044
vn 0.8287 0.5344 0.1661
vn -0.2843 0.7122 -0.6418
vn -0.2238 0.6242 -0.7485
vn -0.1661 0.5344 -0.8287
vn 0.9020 0.2043 -0.3803
vn -0.3821 0.8742 -0.2997
vn -0.3589 0.8328 -0.4215
vn -0.3803 0.2043 0.9020
vn -0.4044 0.9146 -0.0000
vn 0.2843 0.7122 0.6418
vn 0.2238 0.6242 0.7485
vn 0.1661 0.5344 0.8287
vn -0.3821 0.8742 0.2997
vn -0.3589 0.8328 0.4215
vn 0.3821 0.8742 0.2997
vn 0.3589 0.8328 0.4215
vn -0.2843 0.7122 0.6418
vn -0.2238 0.6242 0.7485
vn 0.4044 0.9146 -0.0000
vn -0.1661 0.5344 0.8287
vn 0.3821 0.8742 -0.2997
vn 0.3589 0.8328 -0.4215
vn 0.3803 0.2043 0.9020
vn 0.2843 0.7122 -0.6418
vn 0.2238 0.6242 -0.7485
vn -0.9020 0.2043 -0.3803
vn 0.1661 0.5344 -0.8287
vn -0.6418 0.7122 0.2843
vn -0.7485 0.6242 0.2238
vn -0.8287 0.5344 0.1661
vn -0.2997 0.8742 -0.3821
vn -0.4215 0.8328 -0.3589
vn -0.3803 0.2043 -0.9020
vn 0.9020 0.2043 0.3803
vn -0.4440 -0.4219 -0.7905
vn -0.7475 -0.5798 -0.3242
vn -0.6830 -0.7061 -0.1869
vn -0.6886 -0.6978 -0.1971
vn -0.5990 -0.7929 0.1118
vn -0.5997 -0.7946 0.0945
vn -0.5848 -0.7684 0.2599
vn 0.2599 -0.7684 -0.5848
vn 0.1118 -0.7929 -0.5990
vn 0.0945 -0.7946 -0.5997
vn -0.1869 -0.7061 -0.6830
vn -0.1971 -0.6978 -0.6886
vn -0.3242 -0.5798 -0.7475
vn -0.7904 -0.4219 -0.4440
vn -0.7904 -0.4219 0.4440
vn -0.3242 -0.5798 0.7475
vn -0.1869 -0.7061 0.6830
vn -0.1971 -0.6978 0.6886
vn 0.1118 -0.7929 0.5990
vn 0.0945 -0.7946 0.5997
vn 0.2599 -0.7684 0.5848
vn -0.5848 -0.7684 -0.2599
vn -0.5990 -0.7929 -0.1118
vn -0.5997 -0.7946 -0.0945
vn -0.6830 -0.7061 0.1869
vn -0.6886 -0.6978 0.1971
vn -0.7475 -0.5798 0.3242
vn -0.4440 -0.4219 0.7905
vn 0.4440 -0.4219 0.7905
vn 0.7475 -0.5798 0.3242
vn 0.6830 -0.7061 0.1869
vn 0.6886 -0.6978 0.1971
vn 0.5990 -0.7929 -0.1118
vn 0.5997 -0.7946 -0.0945
vn 0.5848 -0.7684 -0.2599
vn -0.2599 -0.7684 0.5848
vn -0.1118 -0.7929 0.5990
vn -0.0945 -0.7946 0.5997
vn 0.1869 -0.7061 0.6830
vn 0.1971 -0.6978 0.6886
vn 0.3242 -0.5798 0.7475
vn 0.7904 -0.4219 0.4440
vn 0.7904 -0.4219 -0.4440
vn 0.3242 -0.5798 -0.7475
vn 0.1869 -0.7061 -0.6830
vn 0.1971 -0.6978 -0.6886
vn -0.1118 -0.7929 -0.5990
vn -0.0945 -0.7946 -0.5997
vn -0.2599 -0.7684 -0.5848
vn 0.5848 -0.7684 0.2599
vn 0.5990 -0.7929 0.1118
vn 0.5997 -0.7946 0.0945
vn 0.6830 -0.7061 -0.1869
vn 0.6886 -0.6978 -0.1971
vn 0.7475 -0.5798 -0.3242
vn 0.4440 -0.4219 -0.7905
vn 0.3399 0.4441 0.8290
vn 0.5654 0.7701 0.2954
vn 0.6108 0.6634 0.4323
vn 0.5583 0.7820 0.2771
vn 0.5000 0.8660 -0.0003
vn 0.5003 0.8655 -0.0232
vn 0.4973 0.8542 -0.1521
vn -0.0003 0.8660 0.5000
vn -0.1521 0.8542 0.4973
vn -0.0232 0.8655 0.5003
vn 0.2954 0.7701 0.5654
vn 0.2771 0.7820 0.5583
vn 0.4323 0.6634 0.6108
vn 0.8290 0.4441 0.3399
vn 0.8290 0.4441 -0.3399
vn 0.2954 0.7701 -0.5654
vn 0.4323 0.6634 -0.6108
vn 0.2771 0.7820 -0.5583
vn -0.0003 0.8660 -0.5000
vn -0.0232 0.8655 -0.5003
vn -0.1521 0.8542 -0.4973
vn 0.5000 0.8660 0.0003
vn 0.4973 0.8542 0.1521
vn 0.5003 0.8655 0.0232
vn 0.5654 0.7701 -0.2954
vn 0.5583 0.7820 -0.2771
vn 0.6108 0.6634 -0.4323
vn 0.3399 0.4441 -0.8290
vn -0.3399 0.4441 -0.8290
vn -0.5654 0.7701 -0.2954
vn -0.6108 0.6634 -0.4323
vn -0.5583 0.7820 -0.2771
vn -0.5000 0.8660 0.0003
vn -0.5003 0.8655 0.0232
vn -0.4973 0.8542 0.1521
vn 0.0003 0.8660 -0.5000
vn 0.1521 0.8542 -0.4973
vn 0.0232 0.8655 -0.5003
vn -0.2954 0.7701 -0.5654
vn -0.2771 0.7820 -0.5583
vn -0.4323 0.6634 -0.6108
vn -0.8290 0.4441 -0.3399
vn -0.8290 0.4441 0.3399
vn -0.2954 0.7701 0.5654
vn -0.4323 0.6634 0.6108
vn -0.2771 0.7820 0.5583
vn 0.0003 0.8660 0.5000
vn 0.0232 0.8655 0.5003
vn 0.1521 0.8542 0.4973
vn -0.5000 0.8660 -0.0003
vn -0.4973 0.8542 -0.1521
vn -0.5003 0.8655 -0.0232
vn -0.5654 0.7701 0.2954
vn -0.5583 0.7820 0.2771
vn -0.6108 0.6634 0.4323
vn -0.3399 0.4441 0.8290
vt 0.000000 0.000000
s 1
f 17/1/1 16/1/2 48/1/3 49/1/1
f 4/1/4 3/1/5 35/1/6 36/1/4
f 31/1/7 30/1/8 62/1/8 63/1/9
f 18/1/10 17/1/1 49/1/1 50/1/11
f 5/1/12 4/1/12 36/1/12 37/1/12
f 32/1/13 31/1/7 63/1/9 64/1/14
f 19/1/15 18/1/10 50/1/11 51/1/16
f 6/1/17 5/1/17 37/1/17 38/1/17
f 1/1/18 32/1/13 64/1/14 33/1/18
f 20/1/19 19/1/15 51/1/16 52/1/19
f 7/1/20 6/1/21 38/1/21 39/1/22
f 21/1/23 20/1/23 52/1/23 53/1/23
f 8/1/24 7/1/20 39/1/22 40/1/25
f 22/1/26 21/1/26 53/1/26 54/1/26
f 9/1/27 8/1/24 40/1/25 41/1/27
f 23/1/28 22/1/29 54/1/29 55/1/30
f 10/1/31 9/1/27 41/1/27 42/1/32
f 24/1/33 23/1/28 55/1/30 56/1/34
f 11/1/35 10/1/31 42/1/32 43/1/36
f 25/1/37 24/1/33 56/1/34 57/1/37
f 12/1/38 11/1/35 43/1/36 44/1/38
f 26/1/39 25/1/37 57/1/37 58/1/40
f 13/1/41 12/1/41 44/1/41 45/1/41
f 27/1/42 26/1/39 58/1/40 59/1/43
f 14/1/44 13/1/44 45/1/44 46/1/44
f 28/1/45 27/1/42 59/1/43 60/1/45
f 15/1/46 14/1/47 46/1/47 47/1/48
f 2/1/49 1/1/18 33/1/18 34/1/50
f 29/1/51 28/1/51 60/1/51 61/1/51
f 16/1/2 15/1/46 47/1/48 48/1/3
f 3/1/5 2/1/49 34/1/50 35/1/6
f 30/1/52 29/1/52 61/1/52 62/1/52
f 81/1/53 113/1/53 112/1/54 80/1/55
f 68/1/56 100/1/56 99/1/57 67/1/58
f 95/1/59 127/1/60 126/1/61 94/1/61
f 82/1/62 114/1/63 113/1/53 81/1/53
f 69/1/64 101/1/64 100/1/64 68/1/64
f 96/1/65 128/1/66 127/1/60 95/1/59
f 83/1/67 115/1/68 114/1/63 82/1/62
f 70/1/69 102/1/69 101/1/69 69/1/69
f 65/1/70 97/1/70 128/1/66 96/1/65
f 84/1/71 116/1/71 115/1/68 83/1/67
f 71/1/72 103/1/73 102/1/74 70/1/74
f 85/1/75 117/1/75 116/1/75 84/1/75
f 72/1/76 104/1/77 103/1/73 71/1/72
f 86/1/78 118/1/78 117/1/78 85/1/78
f 73/1/79 105/1/79 104/1/77 72/1/76
f 87/1/80 119/1/81 118/1/82 86/1/82
f 74/1/83 106/1/84 105/1/79 73/1/79
f 88/1/85 120/1/86 119/1/81 87/1/80
f 75/1/87 107/1/88 106/1/84 74/1/83
f 89/1/89 121/1/89 120/1/86 88/1/85
f 76/1/90 108/1/90 107/1/88 75/1/87
f 90/1/91 122/1/92 121/1/89 89/1/89
f 77/1/93 109/1/93 108/1/93 76/1/93
f 91/1/94 123/1/95 122/1/92 90/1/91
f 78/1/96 110/1/96 109/1/96 77/1/96
f 92/1/97 124/1/97 123/1/95 91/1/94
f 79/1/98 111/1/99 110/1/100 78/1/100
f 66/1/101 98/1/102 97/1/70 65/1/70
f 93/1/103 125/1/103 124/1/103 92/1/103
f 80/1/55 112/1/54 111/1/99 79/1/98
f 67/1/58 99/1/57 98/1/102 66/1/101
f 94/1/104 126/1/104 125/1/104 93/1/104
f 1/1/105 2/1/105 66/1/105 65/1/105
f 2/1/106 3/1/107 67/1/108 66/1/106
f 3/1/107 4/1/109 68/1/110 67/1/108
f 4/1/109 5/1/111 69/1/111 68/1/110
f 5/1/112 6/1/113 70/1/114 69/1/112
f 6/1/113 7/1/115 71/1/116 70/1/114
f 7/1/115 8/1/117 72/1/117 71/1/116
f 8/1/118 9/1/118 73/1/118 72/1/118
f 9/1/119 10/1/119 74/1/119 73/1/119
f 10/1/120 11/1/121 75/1/122 74/1/120
f 11/1/121 12/1/123 76/1/124 75/1/122
f 12/1/123 13/1/125 77/1/125 76/1/124
f 13/1/126 14/1/127 78/1/128 77/1/126
f 14/1/127 15/1/129 79/1/130 78/1/128
f 15/1/129 16/1/131 80/1/131 79/1/130
f 16/1/132 17/1/132 81/1/132 80/1/132
f 17/1/133 18/1/133 82/1/133 81/1/133
f 18/1/134 19/1/135 83/1/136 82/1/134
f 19/1/135 20/1/137 84/1/138 83/1/136
f 20/1/137 21/1/139 85/1/139 84/1/138
f 21/1/140 22/1/141 86/1/142 85/1/140
f 22/1/141 23/1/143 87/1/144 86/1/142
f 23/1/143 24/1/145 88/1/145 87/1/144
f 24/1/146 25/1/146 89/1/146 88/1/146
f 25/1/147 26/1/147 90/1/147 89/1/147
f 26/1/148 27/1/149 91/1/150 90/1/148
f 27/1/149 28/1/151 92/1/152 91/1/150
f 28/1/151 29/1/153 93/1/153 92/1/152
f 29/1/154 30/1/155 94/1/156 93/1/154
f 30/1/155 31/1/157 95/1/158 94/1/156
f 31/1/157 32/1/159 96/1/159 95/1/158
f 32/1/160 1/1/160 65/1/160 96/1/160
f 34/1/161 33/1/161 97/1/161 98/1/161
f 35/1/162 34/1/163 98/1/163 99/1/164
f 36/1/165 35/1/162 99/1/164 100/1/166
f 37/1/167 36/1/165 100/1/166 101/1/167
f 38/1/168 37/1/169 101/1/169 102/1/170
f 39/1/171 38/1/168 102/1/170 103/1/172
f 40/1/173 39/1/171 103/1/172 104/1/173
f 41/1/174 40/1/174 104/1/174 105/1/174
f 42/1/175 41/1/175 105/1/175 106/1/175
f 43/1/176 42/1/177 106/1/177 107/1/178
f 44/1/179 43/1/176 107/1/178 108/1/180
f 45/1/181 44/1/179 108/1/180 109/1/181
f 46/1/182 45/1/183 109/1/183 110/1/184
f 47/1/185 46/1/182 110/1/184 111/1/186
f 48/1/187 47/1/185 111/1/186 112/1/187
f 49/1/188 48/1/188 112/1/188 113/1/188
f 50/1/189 49/1/189 113/1/189 114/1/189
f 51/1/190 50/1/191 114/1/191 115/1/192
f 52/1/193 51/1/190 115/1/192 116/1/194
f 53/1/195 52/1/193 116/1/194 117/1/195
f 54/1/196 53/1/197 117/1/197 118/1/198
f 55/1/199 54/1/196 118/1/198 119/1/200
f 56/1/201 55/1/199 119/1/200 120/1/201
f 57/1/202 56/1/202 120/1/202 121/1/202
f 58/1/203 57/1/203 121/1/203 122/1/203
f 59/1/204 58/1/205 122/1/205 123/1/206
f 60/1/207 59/1/204 123/1/206 124/1/208
f 61/1/209 60/1/207 124/1/208 125/1/209
f 62/1/210 61/1/211 125/1/211 126/1/212
f 63/1/213 62/1/210 126/1/212 127/1/214
f 64/1/215 63/1/213 127/1/214 128/1/215
f 33/1/216 64/1/216 128/1/216 97/1/216
