# Blender 4.0.2
# www.blender.org
mtllib UI_1.mtl
o Circle.002
v 0.000000 -0.011007 -0.147058
v -0.020401 -0.010853 -0.140652
v -0.040387 -0.010543 -0.123316
v -0.059507 -0.010414 -0.099736
v -0.076743 -0.010491 -0.071675
v -0.091131 -0.010641 -0.040536
v -0.101953 -0.010795 -0.008469
v -0.108717 -0.010930 0.022662
v -0.111155 -0.011039 0.050837
v -0.109192 -0.011110 0.074847
v -0.102939 -0.011130 0.094589
v -0.092732 -0.011122 0.111606
v -0.078993 -0.011112 0.126032
v -0.062186 -0.011104 0.137493
v -0.042925 -0.011083 0.145550
v -0.021924 -0.011053 0.150030
v 0.000000 -0.011039 0.151450
v 0.021924 -0.011053 0.150030
v 0.042925 -0.011083 0.145550
v 0.062186 -0.011104 0.137493
v 0.078993 -0.011112 0.126032
v 0.092732 -0.011122 0.111606
v 0.102939 -0.011130 0.094589
v 0.109192 -0.011110 0.074847
v 0.111155 -0.011039 0.050837
v 0.108717 -0.010930 0.022662
v 0.101953 -0.010795 -0.008469
v 0.091131 -0.010641 -0.040536
v 0.076743 -0.010491 -0.071675
v 0.059507 -0.010414 -0.099736
v 0.040387 -0.010543 -0.123316
v 0.020401 -0.010853 -0.140652
v 0.000000 -0.002434 -0.126998
v -0.016162 -0.002232 -0.122354
v -0.032532 -0.001936 -0.109401
v -0.048331 -0.001842 -0.089839
v -0.062562 -0.001913 -0.065508
v -0.074443 -0.002048 -0.038226
v -0.083392 -0.002194 -0.009757
v -0.089003 -0.002330 0.018206
v -0.091047 -0.002445 0.043572
v -0.089471 -0.002529 0.065599
v -0.084379 -0.002558 0.084026
v -0.076049 -0.002548 0.098867
v -0.064825 -0.002539 0.110492
v -0.051070 -0.002531 0.119674
v -0.035280 -0.002509 0.126248
v -0.018031 -0.002480 0.130130
v 0.000000 -0.002466 0.131389
v 0.018031 -0.002480 0.130130
v 0.035280 -0.002509 0.126248
v 0.051070 -0.002531 0.119674
v 0.064825 -0.002539 0.110492
v 0.076049 -0.002548 0.098867
v 0.084379 -0.002558 0.084026
v 0.089471 -0.002529 0.065599
v 0.091047 -0.002445 0.043572
v 0.089003 -0.002330 0.018206
v 0.083392 -0.002194 -0.009757
v 0.074443 -0.002048 -0.038226
v 0.062562 -0.001913 -0.065508
v 0.048331 -0.001842 -0.089839
v 0.032532 -0.001936 -0.109401
v 0.016162 -0.002232 -0.122354
v 0.000000 0.000000 -0.151837
v -0.022603 0.000000 -0.145273
v -0.044338 0.000000 -0.127469
v -0.064368 0.000000 -0.103188
v -0.081925 0.000000 -0.074334
v -0.096334 0.000000 -0.042461
v -0.107040 0.000000 -0.009725
v -0.113633 0.000000 0.022054
v -0.115860 0.000000 0.050935
v -0.113633 0.000000 0.075763
v -0.107040 0.000000 0.096403
v -0.096334 0.000000 0.114315
v -0.081925 0.000000 0.129485
v -0.064368 0.000000 0.141485
v -0.044338 0.000000 0.149928
v -0.022603 0.000000 0.154652
v 0.000000 0.000000 0.156155
v 0.022603 0.000000 0.154652
v 0.044338 0.000000 0.149928
v 0.064368 0.000000 0.141485
v 0.081925 0.000000 0.129485
v 0.096334 0.000000 0.114315
v 0.107040 0.000000 0.096403
v 0.113633 0.000000 0.075763
v 0.115860 0.000000 0.050935
v 0.113633 0.000000 0.022054
v 0.107040 0.000000 -0.009725
v 0.096334 0.000000 -0.042461
v 0.081925 0.000000 -0.074334
v 0.064368 0.000000 -0.103188
v 0.044338 0.000000 -0.127469
v 0.022603 0.000000 -0.145273
v 0.000000 0.008573 -0.131777
v -0.018690 0.008573 -0.126921
v -0.036661 0.008573 -0.113464
v -0.053223 0.008573 -0.093242
v -0.067740 0.008573 -0.068195
v -0.079654 0.008573 -0.040237
v -0.088507 0.008573 -0.011134
v -0.093959 0.008573 0.017460
v -0.095799 0.008573 0.043515
v -0.093959 0.008573 0.066377
v -0.088507 0.008573 0.085775
v -0.079654 0.008573 0.101571
v -0.067740 0.008573 0.113959
v -0.053223 0.008573 0.123683
v -0.036661 0.008573 0.130640
v -0.018690 0.008573 0.134757
v 0.000000 0.008573 0.136095
v 0.018690 0.008573 0.134757
v 0.036661 0.008573 0.130640
v 0.053223 0.008573 0.123683
v 0.067740 0.008573 0.113959
v 0.079654 0.008573 0.101571
v 0.088507 0.008573 0.085775
v 0.093959 0.008573 0.066377
v 0.095799 0.008573 0.043515
v 0.093959 0.008573 0.017460
v 0.088507 0.008573 -0.011134
v 0.079654 0.008573 -0.040237
v 0.067740 0.008573 -0.068195
v 0.053223 0.008573 -0.093242
v 0.036661 0.008573 -0.113464
v 0.018690 0.008573 -0.126921
vn -0.0000 -0.9199 -0.3921
vn 0.0565 -0.9211 -0.3851
vn 0.0548 -0.9211 -0.3856
vn 0.4052 -0.8679 0.2874
vn 0.3297 -0.8787 0.3454
vn 0.3449 -0.8757 0.3378
vn 0.4077 -0.8680 0.2834
vn -0.3297 -0.8787 0.3454
vn -0.4052 -0.8679 0.2874
vn -0.4077 -0.8680 0.2834
vn -0.3449 -0.8757 0.3378
vn -0.0565 -0.9211 -0.3851
vn -0.0548 -0.9211 -0.3856
vn 0.4318 -0.8743 0.2214
vn 0.4314 -0.8739 0.2239
vn -0.1841 -0.9043 0.3850
vn -0.2126 -0.9002 0.3800
vn -0.1177 -0.9236 -0.3649
vn -0.1149 -0.9235 -0.3660
vn 0.4335 -0.8868 0.1603
vn 0.4342 -0.8851 0.1676
vn -0.0000 -0.9171 0.3987
vn -0.1818 -0.9253 -0.3327
vn -0.1794 -0.9253 -0.3341
vn 0.4239 -0.8996 0.1047
vn 0.4263 -0.8973 0.1148
vn -0.2443 -0.9260 -0.2878
vn -0.2429 -0.9260 -0.2890
vn 0.4097 -0.9108 0.0507
vn 0.4130 -0.9086 0.0623
vn -0.3002 -0.9268 -0.2258
vn -0.3004 -0.9268 -0.2255
vn 0.3921 -0.9199 -0.0081
vn 0.3961 -0.9182 0.0049
vn -0.3419 -0.9275 -0.1511
vn -0.3441 -0.9275 -0.1458
vn 0.3702 -0.9258 -0.0762
vn 0.3740 -0.9252 -0.0647
vn -0.3702 -0.9258 -0.0762
vn -0.3740 -0.9252 -0.0647
vn 0.3419 -0.9275 -0.1511
vn 0.3441 -0.9275 -0.1458
vn -0.3921 -0.9199 -0.0081
vn -0.3961 -0.9182 0.0049
vn 0.3002 -0.9268 -0.2258
vn 0.3004 -0.9268 -0.2255
vn -0.4097 -0.9108 0.0507
vn -0.4130 -0.9086 0.0623
vn 0.2443 -0.9260 -0.2878
vn 0.2429 -0.9260 -0.2890
vn -0.4239 -0.8996 0.1047
vn -0.4263 -0.8973 0.1148
vn 0.1818 -0.9253 -0.3327
vn 0.1794 -0.9253 -0.3341
vn -0.4335 -0.8868 0.1603
vn -0.4342 -0.8851 0.1676
vn 0.1177 -0.9236 -0.3649
vn 0.1149 -0.9235 -0.3660
vn 0.1841 -0.9043 0.3850
vn 0.2126 -0.9002 0.3800
vn -0.4318 -0.8743 0.2214
vn -0.4314 -0.8739 0.2239
vn -0.0000 0.9199 0.3921
vn -0.0549 0.9211 0.3855
vn -0.0566 0.9211 0.3851
vn -0.4051 0.8678 -0.2877
vn -0.4077 0.8679 -0.2836
vn -0.3441 0.8757 -0.3387
vn -0.3292 0.8786 -0.3461
vn 0.3292 0.8786 -0.3461
vn 0.3441 0.8757 -0.3387
vn 0.4077 0.8679 -0.2836
vn 0.4051 0.8678 -0.2877
vn 0.0566 0.9211 0.3851
vn 0.0549 0.9211 0.3855
vn -0.4319 0.8743 -0.2216
vn -0.4315 0.8739 -0.2239
vn 0.1835 0.9045 -0.3851
vn 0.2106 0.9005 -0.3805
vn 0.1177 0.9236 0.3649
vn 0.1151 0.9235 0.3660
vn -0.4336 0.8867 -0.1604
vn -0.4342 0.8851 -0.1675
vn -0.0000 0.9173 -0.3982
vn 0.1818 0.9254 0.3327
vn 0.1794 0.9253 0.3341
vn -0.4239 0.8996 -0.1047
vn -0.4263 0.8973 -0.1147
vn 0.2444 0.9260 0.2877
vn 0.2430 0.9260 0.2889
vn -0.4097 0.9108 -0.0507
vn -0.4130 0.9086 -0.0622
vn 0.3002 0.9268 0.2257
vn 0.3004 0.9268 0.2254
vn -0.3921 0.9199 0.0082
vn -0.3961 0.9182 -0.0047
vn 0.3418 0.9275 0.1512
vn 0.3440 0.9276 0.1458
vn -0.3702 0.9258 0.0763
vn -0.3740 0.9252 0.0648
vn 0.3702 0.9258 0.0763
vn 0.3740 0.9252 0.0648
vn -0.3418 0.9275 0.1512
vn -0.3440 0.9276 0.1458
vn 0.3921 0.9199 0.0082
vn 0.3961 0.9182 -0.0047
vn -0.3002 0.9268 0.2257
vn -0.3004 0.9268 0.2254
vn 0.4097 0.9108 -0.0507
vn 0.4130 0.9086 -0.0622
vn -0.2444 0.9260 0.2877
vn -0.2430 0.9260 0.2889
vn 0.4239 0.8996 -0.1047
vn 0.4263 0.8973 -0.1147
vn -0.1818 0.9254 0.3327
vn -0.1794 0.9253 0.3341
vn 0.4336 0.8867 -0.1604
vn 0.4342 0.8851 -0.1675
vn -0.1177 0.9236 0.3649
vn -0.1151 0.9235 0.3660
vn -0.1835 0.9045 -0.3851
vn -0.2106 0.9005 -0.3805
vn 0.4319 0.8743 -0.2216
vn 0.4315 0.8739 -0.2239
vn -0.2656 -0.4033 -0.8757
vn -0.4312 -0.4325 -0.7918
vn -0.4276 -0.4320 -0.7940
vn -0.6305 -0.4677 -0.6195
vn -0.6298 -0.4674 -0.6205
vn -0.7116 -0.4886 -0.5048
vn -0.7731 -0.4824 -0.4118
vn -0.7733 -0.4823 -0.4115
vn -0.8252 -0.4617 -0.3255
vn -0.8254 -0.4615 -0.3251
vn -0.8678 -0.4371 -0.2364
vn -0.8680 -0.4370 -0.2359
vn -0.9008 -0.4136 -0.1327
vn -0.9009 -0.4135 -0.1321
vn -0.9192 -0.3938 0.0012
vn -0.9192 -0.3937 0.0018
vn -0.9068 -0.3808 0.1805
vn -0.9068 -0.3808 0.1807
vn -0.8448 -0.3754 0.3813
vn -0.8450 -0.3754 0.3809
vn -0.7378 -0.3755 0.5609
vn -0.7379 -0.3755 0.5608
vn -0.5999 -0.3774 0.7054
vn -0.5999 -0.3774 0.7055
vn -0.4420 -0.3799 0.8126
vn -0.4421 -0.3799 0.8126
vn -0.2769 -0.3839 0.8809
vn -0.2772 -0.3839 0.8808
vn -0.1273 -0.3884 0.9127
vn -0.1275 -0.3884 0.9126
vn -0.0000 -0.3905 0.9206
vn 0.1273 -0.3884 0.9127
vn 0.1275 -0.3884 0.9126
vn 0.2769 -0.3839 0.8809
vn 0.2772 -0.3839 0.8808
vn 0.4420 -0.3799 0.8126
vn 0.4421 -0.3799 0.8126
vn 0.5999 -0.3774 0.7054
vn 0.5999 -0.3774 0.7055
vn 0.7378 -0.3755 0.5609
vn 0.7379 -0.3755 0.5608
vn 0.8448 -0.3754 0.3813
vn 0.8450 -0.3754 0.3809
vn 0.9068 -0.3808 0.1805
vn 0.9068 -0.3808 0.1807
vn 0.9192 -0.3938 0.0012
vn 0.9192 -0.3937 0.0018
vn 0.9008 -0.4136 -0.1327
vn 0.9009 -0.4135 -0.1321
vn 0.8678 -0.4371 -0.2364
vn 0.8680 -0.4370 -0.2359
vn 0.8252 -0.4617 -0.3255
vn 0.8254 -0.4615 -0.3251
vn 0.7731 -0.4824 -0.4118
vn 0.7733 -0.4823 -0.4115
vn 0.7116 -0.4886 -0.5048
vn 0.6305 -0.4677 -0.6195
vn 0.6298 -0.4674 -0.6205
vn 0.4312 -0.4325 -0.7918
vn 0.4276 -0.4320 -0.7940
vn 0.2656 -0.4033 -0.8757
vn 0.3979 0.4370 0.8067
vn -0.0000 0.4181 0.9084
vn 0.4028 0.4378 0.8038
vn 0.6141 0.4742 0.6309
vn 0.6153 0.4745 0.6295
vn 0.7168 0.4906 0.4955
vn 0.7167 0.4906 0.4956
vn 0.7814 0.4835 0.3944
vn 0.7812 0.4836 0.3948
vn 0.8307 0.4646 0.3069
vn 0.8304 0.4647 0.3074
vn 0.8701 0.4414 0.2194
vn 0.8699 0.4416 0.2199
vn 0.9002 0.4181 0.1220
vn 0.9000 0.4182 0.1225
vn 0.9177 0.3972 -0.0001
vn 0.9177 0.3973 0.0005
vn 0.9102 0.3820 -0.1598
vn 0.9103 0.3820 -0.1595
vn 0.8567 0.3756 -0.3534
vn 0.8566 0.3756 -0.3538
vn 0.7439 0.3760 -0.5526
vn 0.7437 0.3760 -0.5528
vn 0.5942 0.3774 -0.7103
vn 0.4376 0.3798 -0.8150
vn 0.4375 0.3798 -0.8151
vn 0.2814 0.3839 -0.8794
vn 0.2811 0.3839 -0.8795
vn 0.1349 0.3887 -0.9115
vn 0.1346 0.3887 -0.9115
vn -0.0000 0.3908 -0.9205
vn -0.1349 0.3887 -0.9115
vn -0.1346 0.3887 -0.9115
vn -0.2814 0.3839 -0.8794
vn -0.2811 0.3839 -0.8795
vn -0.4376 0.3798 -0.8150
vn -0.4375 0.3798 -0.8151
vn -0.5942 0.3774 -0.7103
vn -0.7439 0.3760 -0.5526
vn -0.7437 0.3760 -0.5528
vn -0.8567 0.3756 -0.3534
vn -0.8566 0.3756 -0.3538
vn -0.9102 0.3820 -0.1598
vn -0.9103 0.3820 -0.1595
vn -0.9177 0.3972 -0.0001
vn -0.9177 0.3973 0.0005
vn -0.9002 0.4181 0.1220
vn -0.9000 0.4182 0.1225
vn -0.8701 0.4414 0.2194
vn -0.8699 0.4416 0.2199
vn -0.8307 0.4646 0.3069
vn -0.8304 0.4647 0.3074
vn -0.7814 0.4835 0.3944
vn -0.7812 0.4836 0.3948
vn -0.7168 0.4906 0.4955
vn -0.7167 0.4906 0.4956
vn -0.6141 0.4742 0.6309
vn -0.6153 0.4745 0.6295
vn -0.3979 0.4370 0.8067
vn -0.4028 0.4378 0.8038
vt 0.000000 0.000000
s 1
f 17/1/1 16/1/2 48/1/3 49/1/1
f 4/1/4 3/1/5 35/1/6 36/1/7
f 31/1/8 30/1/9 62/1/10 63/1/11
f 18/1/12 17/1/1 49/1/1 50/1/13
f 5/1/14 4/1/4 36/1/7 37/1/15
f 32/1/16 31/1/8 63/1/11 64/1/17
f 19/1/18 18/1/12 50/1/13 51/1/19
f 6/1/20 5/1/14 37/1/15 38/1/21
f 1/1/22 32/1/16 64/1/17 33/1/22
f 20/1/23 19/1/18 51/1/19 52/1/24
f 7/1/25 6/1/20 38/1/21 39/1/26
f 21/1/27 20/1/23 52/1/24 53/1/28
f 8/1/29 7/1/25 39/1/26 40/1/30
f 22/1/31 21/1/27 53/1/28 54/1/32
f 9/1/33 8/1/29 40/1/30 41/1/34
f 23/1/35 22/1/31 54/1/32 55/1/36
f 10/1/37 9/1/33 41/1/34 42/1/38
f 24/1/39 23/1/35 55/1/36 56/1/40
f 11/1/41 10/1/37 42/1/38 43/1/42
f 25/1/43 24/1/39 56/1/40 57/1/44
f 12/1/45 11/1/41 43/1/42 44/1/46
f 26/1/47 25/1/43 57/1/44 58/1/48
f 13/1/49 12/1/45 44/1/46 45/1/50
f 27/1/51 26/1/47 58/1/48 59/1/52
f 14/1/53 13/1/49 45/1/50 46/1/54
f 28/1/55 27/1/51 59/1/52 60/1/56
f 15/1/57 14/1/53 46/1/54 47/1/58
f 2/1/59 1/1/22 33/1/22 34/1/60
f 29/1/61 28/1/55 60/1/56 61/1/62
f 16/1/2 15/1/57 47/1/58 48/1/3
f 3/1/5 2/1/59 34/1/60 35/1/6
f 30/1/9 29/1/61 61/1/62 62/1/10
f 81/1/63 113/1/63 112/1/64 80/1/65
f 68/1/66 100/1/67 99/1/68 67/1/69
f 95/1/70 127/1/71 126/1/72 94/1/73
f 82/1/74 114/1/75 113/1/63 81/1/63
f 69/1/76 101/1/77 100/1/67 68/1/66
f 96/1/78 128/1/79 127/1/71 95/1/70
f 83/1/80 115/1/81 114/1/75 82/1/74
f 70/1/82 102/1/83 101/1/77 69/1/76
f 65/1/84 97/1/84 128/1/79 96/1/78
f 84/1/85 116/1/86 115/1/81 83/1/80
f 71/1/87 103/1/88 102/1/83 70/1/82
f 85/1/89 117/1/90 116/1/86 84/1/85
f 72/1/91 104/1/92 103/1/88 71/1/87
f 86/1/93 118/1/94 117/1/90 85/1/89
f 73/1/95 105/1/96 104/1/92 72/1/91
f 87/1/97 119/1/98 118/1/94 86/1/93
f 74/1/99 106/1/100 105/1/96 73/1/95
f 88/1/101 120/1/102 119/1/98 87/1/97
f 75/1/103 107/1/104 106/1/100 74/1/99
f 89/1/105 121/1/106 120/1/102 88/1/101
f 76/1/107 108/1/108 107/1/104 75/1/103
f 90/1/109 122/1/110 121/1/106 89/1/105
f 77/1/111 109/1/112 108/1/108 76/1/107
f 91/1/113 123/1/114 122/1/110 90/1/109
f 78/1/115 110/1/116 109/1/112 77/1/111
f 92/1/117 124/1/118 123/1/114 91/1/113
f 79/1/119 111/1/120 110/1/116 78/1/115
f 66/1/121 98/1/122 97/1/84 65/1/84
f 93/1/123 125/1/124 124/1/118 92/1/117
f 80/1/65 112/1/64 111/1/120 79/1/119
f 67/1/69 99/1/68 98/1/122 66/1/121
f 94/1/73 126/1/72 125/1/124 93/1/123
f 1/1/125 2/1/126 66/1/127 65/1/125
f 2/1/126 3/1/128 67/1/129 66/1/127
f 3/1/128 4/1/130 68/1/130 67/1/129
f 4/1/130 5/1/131 69/1/132 68/1/130
f 5/1/131 6/1/133 70/1/134 69/1/132
f 6/1/133 7/1/135 71/1/136 70/1/134
f 7/1/135 8/1/137 72/1/138 71/1/136
f 8/1/137 9/1/139 73/1/140 72/1/138
f 9/1/139 10/1/141 74/1/142 73/1/140
f 10/1/141 11/1/143 75/1/144 74/1/142
f 11/1/143 12/1/145 76/1/146 75/1/144
f 12/1/145 13/1/147 77/1/148 76/1/146
f 13/1/147 14/1/149 78/1/150 77/1/148
f 14/1/149 15/1/151 79/1/152 78/1/150
f 15/1/151 16/1/153 80/1/154 79/1/152
f 16/1/153 17/1/155 81/1/155 80/1/154
f 17/1/155 18/1/156 82/1/157 81/1/155
f 18/1/156 19/1/158 83/1/159 82/1/157
f 19/1/158 20/1/160 84/1/161 83/1/159
f 20/1/160 21/1/162 85/1/163 84/1/161
f 21/1/162 22/1/164 86/1/165 85/1/163
f 22/1/164 23/1/166 87/1/167 86/1/165
f 23/1/166 24/1/168 88/1/169 87/1/167
f 24/1/168 25/1/170 89/1/171 88/1/169
f 25/1/170 26/1/172 90/1/173 89/1/171
f 26/1/172 27/1/174 91/1/175 90/1/173
f 27/1/174 28/1/176 92/1/177 91/1/175
f 28/1/176 29/1/178 93/1/179 92/1/177
f 29/1/178 30/1/180 94/1/180 93/1/179
f 30/1/180 31/1/181 95/1/182 94/1/180
f 31/1/181 32/1/183 96/1/184 95/1/182
f 32/1/183 1/1/185 65/1/185 96/1/184
f 34/1/186 33/1/187 97/1/187 98/1/188
f 35/1/189 34/1/186 98/1/188 99/1/190
f 36/1/191 35/1/189 99/1/190 100/1/192
f 37/1/193 36/1/191 100/1/192 101/1/194
f 38/1/195 37/1/193 101/1/194 102/1/196
f 39/1/197 38/1/195 102/1/196 103/1/198
f 40/1/199 39/1/197 103/1/198 104/1/200
f 41/1/201 40/1/199 104/1/200 105/1/202
f 42/1/203 41/1/201 105/1/202 106/1/204
f 43/1/205 42/1/203 106/1/204 107/1/206
f 44/1/207 43/1/205 107/1/206 108/1/208
f 45/1/209 44/1/207 108/1/208 109/1/209
f 46/1/210 45/1/209 109/1/209 110/1/211
f 47/1/212 46/1/210 110/1/211 111/1/213
f 48/1/214 47/1/212 111/1/213 112/1/215
f 49/1/216 48/1/214 112/1/215 113/1/216
f 50/1/217 49/1/216 113/1/216 114/1/218
f 51/1/219 50/1/217 114/1/218 115/1/220
f 52/1/221 51/1/219 115/1/220 116/1/222
f 53/1/223 52/1/221 116/1/222 117/1/223
f 54/1/224 53/1/223 117/1/223 118/1/225
f 55/1/226 54/1/224 118/1/225 119/1/227
f 56/1/228 55/1/226 119/1/227 120/1/229
f 57/1/230 56/1/228 120/1/229 121/1/231
f 58/1/232 57/1/230 121/1/231 122/1/233
f 59/1/234 58/1/232 122/1/233 123/1/235
f 60/1/236 59/1/234 123/1/235 124/1/237
f 61/1/238 60/1/236 124/1/237 125/1/239
f 62/1/240 61/1/238 125/1/239 126/1/241
f 63/1/242 62/1/240 126/1/241 127/1/243
f 64/1/244 63/1/242 127/1/243 128/1/245
f 33/1/187 64/1/244 128/1/245 97/1/187
