# Blender 4.0.2
# www.blender.org
mtllib UI_2.mtl
o Circle.001
v 0.000000 -0.005803 -0.088808
v -0.025646 -0.006673 -0.116735
v -0.053273 -0.007578 -0.126111
v -0.077849 -0.007684 -0.116148
v -0.099836 -0.007750 -0.099836
v -0.116148 -0.007684 -0.077849
v -0.126111 -0.007578 -0.053273
v -0.116735 -0.006673 -0.025646
v -0.088808 -0.005803 0.000000
v -0.116735 -0.006673 0.025646
v -0.126111 -0.007578 0.053273
v -0.116148 -0.007684 0.077849
v -0.099836 -0.007750 0.099836
v -0.077849 -0.007684 0.116148
v -0.053273 -0.007578 0.126111
v -0.025646 -0.006673 0.116735
v 0.000000 -0.005803 0.088808
v 0.025646 -0.006673 0.116735
v 0.053273 -0.007578 0.126111
v 0.077849 -0.007684 0.116148
v 0.099836 -0.007750 0.099836
v 0.116148 -0.007684 0.077849
v 0.126111 -0.007578 0.053273
v 0.116735 -0.006673 0.025646
v 0.088808 -0.005803 0.000000
v 0.116735 -0.006673 -0.025646
v 0.126111 -0.007578 -0.053273
v 0.116148 -0.007684 -0.077849
v 0.099836 -0.007750 -0.099836
v 0.077849 -0.007684 -0.116148
v 0.053273 -0.007578 -0.126111
v 0.025646 -0.006673 -0.116735
v 0.000000 0.001007 -0.072975
v -0.021379 0.002335 -0.091139
v -0.044978 0.002853 -0.104566
v -0.064302 0.002913 -0.095815
v -0.082166 0.002930 -0.082166
v -0.095815 0.002913 -0.064302
v -0.104566 0.002853 -0.044978
v -0.091139 0.002335 -0.021379
v -0.072975 0.001007 -0.000000
v -0.091139 0.002335 0.021379
v -0.104566 0.002853 0.044978
v -0.095815 0.002913 0.064302
v -0.082166 0.002930 0.082166
v -0.064302 0.002913 0.095815
v -0.044978 0.002853 0.104566
v -0.021379 0.002335 0.091139
v 0.000000 0.001007 0.072975
v 0.021379 0.002335 0.091139
v 0.044978 0.002853 0.104566
v 0.064302 0.002913 0.095815
v 0.082166 0.002930 0.082166
v 0.095815 0.002913 0.064302
v 0.104566 0.002853 0.044978
v 0.091139 0.002335 0.021379
v 0.072975 0.001007 -0.000000
v 0.091139 0.002335 -0.021379
v 0.104566 0.002853 -0.044978
v 0.095815 0.002913 -0.064302
v 0.082166 0.002930 -0.082166
v 0.064302 0.002913 -0.095815
v 0.044978 0.002853 -0.104566
v 0.021379 0.002335 -0.091139
v 0.000000 0.001511 -0.091971
v -0.023863 0.000388 -0.119969
v -0.053541 -0.000263 -0.129259
v -0.079445 -0.000377 -0.118897
v -0.102057 -0.000426 -0.102057
v -0.118897 -0.000377 -0.079445
v -0.129259 -0.000263 -0.053541
v -0.119969 0.000388 -0.023863
v -0.091971 0.001511 0.000000
v -0.119969 0.000388 0.023863
v -0.129259 -0.000263 0.053541
v -0.118897 -0.000377 0.079445
v -0.102057 -0.000426 0.102057
v -0.079445 -0.000377 0.118897
v -0.053541 -0.000263 0.129259
v -0.023863 0.000388 0.119969
v 0.000000 0.001511 0.091971
v 0.023863 0.000388 0.119969
v 0.053541 -0.000263 0.129259
v 0.079445 -0.000377 0.118897
v 0.102057 -0.000426 0.102057
v 0.118897 -0.000377 0.079445
v 0.129259 -0.000263 0.053541
v 0.119969 0.000388 0.023863
v 0.091971 0.001511 0.000000
v 0.119969 0.000388 -0.023863
v 0.129259 -0.000263 -0.053541
v 0.118897 -0.000377 -0.079445
v 0.102057 -0.000426 -0.102057
v 0.079445 -0.000377 -0.118897
v 0.053541 -0.000263 -0.129259
v 0.023863 0.000388 -0.119969
v 0.000000 0.008320 -0.076138
v -0.018733 0.009210 -0.094176
v -0.044647 0.010134 -0.107788
v -0.065871 0.010219 -0.098583
v -0.084386 0.010254 -0.084386
v -0.098583 0.010219 -0.065871
v -0.107788 0.010134 -0.044647
v -0.094176 0.009210 -0.018733
v -0.076138 0.008320 -0.000000
v -0.094176 0.009210 0.018733
v -0.107788 0.010134 0.044647
v -0.098583 0.010219 0.065871
v -0.084386 0.010254 0.084386
v -0.065871 0.010219 0.098583
v -0.044647 0.010134 0.107788
v -0.018733 0.009210 0.094176
v 0.000000 0.008320 0.076138
v 0.018733 0.009210 0.094176
v 0.044647 0.010134 0.107788
v 0.065871 0.010219 0.098583
v 0.084386 0.010254 0.084386
v 0.098583 0.010219 0.065871
v 0.107788 0.010134 0.044647
v 0.094176 0.009210 0.018733
v 0.076138 0.008320 -0.000000
v 0.094176 0.009210 -0.018733
v 0.107788 0.010134 -0.044647
v 0.098583 0.010219 -0.065871
v 0.084386 0.010254 -0.084386
v 0.065871 0.010219 -0.098583
v 0.044647 0.010134 -0.107788
v 0.018733 0.009210 -0.094176
vn -0.3657 -0.8563 -0.3646
vn -0.2240 -0.8866 -0.4046
vn -0.3134 -0.8700 -0.3806
vn 0.2023 -0.9166 0.3449
vn 0.0342 -0.9179 0.3954
vn -0.0400 -0.9137 0.4045
vn 0.1993 -0.9164 0.3470
vn -0.0342 -0.9179 0.3954
vn -0.2023 -0.9166 0.3449
vn -0.1993 -0.9164 0.3470
vn 0.0400 -0.9137 0.4045
vn 0.2240 -0.8866 -0.4046
vn 0.3657 -0.8563 -0.3646
vn 0.3134 -0.8700 -0.3806
vn 0.2787 -0.9191 0.2787
vn 0.2240 -0.8866 0.4046
vn 0.3134 -0.8700 0.3806
vn -0.0342 -0.9179 -0.3954
vn 0.0400 -0.9137 -0.4045
vn 0.3449 -0.9166 0.2023
vn 0.3470 -0.9164 0.1993
vn 0.3657 -0.8563 0.3646
vn -0.2023 -0.9166 -0.3449
vn -0.1993 -0.9164 -0.3470
vn 0.3954 -0.9179 0.0342
vn 0.4045 -0.9137 -0.0400
vn -0.2787 -0.9191 -0.2787
vn 0.4046 -0.8866 -0.2240
vn 0.3806 -0.8700 -0.3134
vn -0.3449 -0.9166 -0.2023
vn -0.3470 -0.9164 -0.1993
vn 0.3646 -0.8563 -0.3657
vn -0.3954 -0.9179 -0.0342
vn -0.4045 -0.9137 0.0400
vn 0.4046 -0.8866 0.2240
vn 0.3646 -0.8563 0.3657
vn 0.3806 -0.8700 0.3134
vn -0.4046 -0.8866 0.2240
vn -0.3806 -0.8700 0.3134
vn 0.3954 -0.9179 -0.0342
vn 0.4045 -0.9137 0.0400
vn -0.3646 -0.8563 0.3657
vn 0.3449 -0.9166 -0.2023
vn 0.3470 -0.9164 -0.1993
vn -0.4046 -0.8866 -0.2240
vn -0.3646 -0.8563 -0.3657
vn -0.3806 -0.8700 -0.3134
vn 0.2787 -0.9191 -0.2787
vn -0.3954 -0.9179 0.0342
vn -0.4045 -0.9137 -0.0400
vn 0.2023 -0.9166 -0.3449
vn 0.1993 -0.9164 -0.3470
vn -0.3449 -0.9166 0.2023
vn -0.3470 -0.9164 0.1993
vn 0.0342 -0.9179 -0.3954
vn -0.0400 -0.9137 -0.4045
vn -0.2240 -0.8866 0.4046
vn -0.3657 -0.8563 0.3646
vn -0.3134 -0.8700 0.3806
vn -0.2787 -0.9191 0.2787
vn 0.3903 0.8450 0.3654
vn 0.3321 0.8628 0.3812
vn 0.2237 0.8861 0.4059
vn -0.2003 0.9170 -0.3450
vn -0.1969 0.9168 -0.3473
vn 0.0415 0.9137 -0.4043
vn -0.0336 0.9180 -0.3951
vn 0.0336 0.9180 -0.3951
vn -0.0415 0.9137 -0.4043
vn 0.1969 0.9168 -0.3473
vn 0.2003 0.9170 -0.3450
vn -0.2237 0.8861 0.4059
vn -0.3321 0.8628 0.3812
vn -0.3903 0.8450 0.3654
vn -0.2787 0.9191 -0.2787
vn -0.2237 0.8861 -0.4059
vn -0.3321 0.8628 -0.3812
vn 0.0336 0.9180 0.3951
vn -0.0415 0.9137 0.4043
vn -0.3450 0.9170 -0.2003
vn -0.3473 0.9168 -0.1969
vn -0.3903 0.8450 -0.3654
vn 0.2003 0.9170 0.3450
vn 0.1969 0.9168 0.3473
vn -0.3951 0.9180 -0.0336
vn -0.4043 0.9137 0.0415
vn 0.2787 0.9191 0.2787
vn -0.4059 0.8861 0.2237
vn -0.3812 0.8628 0.3321
vn 0.3450 0.9170 0.2003
vn 0.3473 0.9168 0.1969
vn -0.3654 0.8450 0.3903
vn 0.3951 0.9180 0.0336
vn 0.4043 0.9137 -0.0415
vn -0.4059 0.8861 -0.2237
vn -0.3812 0.8628 -0.3321
vn -0.3654 0.8450 -0.3903
vn 0.4059 0.8861 -0.2237
vn 0.3812 0.8628 -0.3321
vn -0.3951 0.9180 0.0336
vn -0.4043 0.9137 -0.0415
vn 0.3654 0.8450 -0.3903
vn -0.3450 0.9170 0.2003
vn -0.3473 0.9168 0.1969
vn 0.4059 0.8861 0.2237
vn 0.3812 0.8628 0.3321
vn 0.3654 0.8450 0.3903
vn -0.2787 0.9191 0.2787
vn 0.3951 0.9180 -0.0336
vn 0.4043 0.9137 0.0415
vn -0.2003 0.9170 0.3450
vn -0.1969 0.9168 0.3473
vn 0.3450 0.9170 -0.2003
vn 0.3473 0.9168 -0.1969
vn -0.0336 0.9180 0.3951
vn 0.0415 0.9137 0.4043
vn 0.2237 0.8861 -0.4059
vn 0.3321 0.8628 -0.3812
vn 0.3903 0.8450 -0.3654
vn 0.2787 0.9191 -0.2787
vn 0.7050 -0.3595 -0.6113
vn 0.5152 -0.3984 -0.7589
vn 0.5121 -0.3988 -0.7608
vn 0.2921 -0.4136 -0.8623
vn -0.3427 -0.3886 -0.8553
vn -0.4482 -0.3939 -0.8025
vn -0.4486 -0.3939 -0.8023
vn -0.6489 -0.3973 -0.6489
vn -0.8025 -0.3939 -0.4482
vn -0.8023 -0.3939 -0.4486
vn -0.8553 -0.3886 -0.3427
vn -0.8623 -0.4136 0.2921
vn -0.7589 -0.3984 0.5152
vn -0.7608 -0.3988 0.5121
vn -0.6113 -0.3595 0.7050
vn -0.6113 -0.3595 -0.7050
vn -0.7589 -0.3984 -0.5152
vn -0.7608 -0.3988 -0.5121
vn -0.8623 -0.4136 -0.2921
vn -0.8553 -0.3886 0.3427
vn -0.8025 -0.3939 0.4482
vn -0.8023 -0.3939 0.4486
vn -0.6489 -0.3973 0.6489
vn -0.4482 -0.3939 0.8025
vn -0.4486 -0.3939 0.8023
vn -0.3427 -0.3886 0.8553
vn 0.2921 -0.4136 0.8623
vn 0.5152 -0.3984 0.7589
vn 0.5121 -0.3988 0.7608
vn 0.7050 -0.3595 0.6113
vn -0.7050 -0.3595 0.6113
vn -0.5152 -0.3984 0.7589
vn -0.5121 -0.3988 0.7608
vn -0.2921 -0.4136 0.8623
vn 0.3427 -0.3886 0.8553
vn 0.4482 -0.3939 0.8025
vn 0.4486 -0.3939 0.8023
vn 0.6489 -0.3973 0.6489
vn 0.8025 -0.3939 0.4482
vn 0.8023 -0.3939 0.4486
vn 0.8553 -0.3886 0.3427
vn 0.8623 -0.4136 -0.2921
vn 0.7589 -0.3984 -0.5152
vn 0.7608 -0.3988 -0.5121
vn 0.6113 -0.3595 -0.7050
vn 0.6113 -0.3595 0.7050
vn 0.7589 -0.3984 0.5152
vn 0.7608 -0.3988 0.5121
vn 0.8623 -0.4136 0.2921
vn 0.8553 -0.3886 -0.3427
vn 0.8025 -0.3939 -0.4482
vn 0.8023 -0.3939 -0.4486
vn 0.6489 -0.3973 -0.6489
vn 0.4482 -0.3939 -0.8025
vn 0.4486 -0.3939 -0.8023
vn 0.3427 -0.3886 -0.8553
vn -0.2921 -0.4136 -0.8623
vn -0.5152 -0.3984 -0.7589
vn -0.5121 -0.3988 -0.7608
vn -0.7050 -0.3595 -0.6113
vn -0.5107 0.4283 0.7455
vn -0.5978 0.4120 0.6876
vn -0.5130 0.4279 0.7441
vn -0.4206 0.4395 0.7937
vn 0.4707 0.3887 0.7921
vn 0.3758 0.3791 0.8456
vn 0.4700 0.3887 0.7925
vn 0.6491 0.3965 0.6491
vn 0.7921 0.3887 0.4707
vn 0.7925 0.3887 0.4700
vn 0.8456 0.3791 0.3758
vn 0.7455 0.4283 -0.5107
vn 0.7937 0.4395 -0.4206
vn 0.7441 0.4279 -0.5130
vn 0.6876 0.4120 -0.5978
vn 0.7455 0.4283 0.5107
vn 0.6876 0.4120 0.5978
vn 0.7441 0.4279 0.5130
vn 0.7937 0.4395 0.4206
vn 0.7921 0.3887 -0.4707
vn 0.8456 0.3791 -0.3758
vn 0.7925 0.3887 -0.4700
vn 0.6491 0.3965 -0.6491
vn 0.4707 0.3887 -0.7921
vn 0.4700 0.3887 -0.7925
vn 0.3758 0.3791 -0.8456
vn -0.5107 0.4283 -0.7455
vn -0.4206 0.4395 -0.7937
vn -0.5130 0.4279 -0.7441
vn -0.5978 0.4120 -0.6876
vn 0.5107 0.4283 -0.7455
vn 0.5978 0.4120 -0.6876
vn 0.5130 0.4279 -0.7441
vn 0.4206 0.4395 -0.7937
vn -0.4707 0.3887 -0.7921
vn -0.3758 0.3791 -0.8456
vn -0.4700 0.3887 -0.7925
vn -0.6491 0.3965 -0.6491
vn -0.7921 0.3887 -0.4707
vn -0.7925 0.3887 -0.4700
vn -0.8456 0.3791 -0.3758
vn -0.7455 0.4283 0.5107
vn -0.7937 0.4395 0.4206
vn -0.7441 0.4279 0.5130
vn -0.6876 0.4120 0.5978
vn -0.7455 0.4283 -0.5107
vn -0.6876 0.4120 -0.5978
vn -0.7441 0.4279 -0.5130
vn -0.7937 0.4395 -0.4206
vn -0.7921 0.3887 0.4707
vn -0.8456 0.3791 0.3758
vn -0.7925 0.3887 0.4700
vn -0.6491 0.3965 0.6491
vn -0.4707 0.3887 0.7921
vn -0.4700 0.3887 0.7925
vn -0.3758 0.3791 0.8456
vn 0.5107 0.4283 0.7455
vn 0.4206 0.4395 0.7937
vn 0.5130 0.4279 0.7441
vn 0.5978 0.4120 0.6876
vt 0.000000 0.000000
s 1
f 17/1/1 16/1/2 48/1/3 49/1/1
f 4/1/4 3/1/5 35/1/6 36/1/7
f 31/1/8 30/1/9 62/1/10 63/1/11
f 18/1/12 17/1/13 49/1/13 50/1/14
f 5/1/15 4/1/4 36/1/7 37/1/15
f 32/1/16 31/1/8 63/1/11 64/1/17
f 19/1/18 18/1/12 50/1/14 51/1/19
f 6/1/20 5/1/15 37/1/15 38/1/21
f 1/1/22 32/1/16 64/1/17 33/1/22
f 20/1/23 19/1/18 51/1/19 52/1/24
f 7/1/25 6/1/20 38/1/21 39/1/26
f 21/1/27 20/1/23 52/1/24 53/1/27
f 8/1/28 7/1/25 39/1/26 40/1/29
f 22/1/30 21/1/27 53/1/27 54/1/31
f 9/1/32 8/1/28 40/1/29 41/1/32
f 23/1/33 22/1/30 54/1/31 55/1/34
f 10/1/35 9/1/36 41/1/36 42/1/37
f 24/1/38 23/1/33 55/1/34 56/1/39
f 11/1/40 10/1/35 42/1/37 43/1/41
f 25/1/42 24/1/38 56/1/39 57/1/42
f 12/1/43 11/1/40 43/1/41 44/1/44
f 26/1/45 25/1/46 57/1/46 58/1/47
f 13/1/48 12/1/43 44/1/44 45/1/48
f 27/1/49 26/1/45 58/1/47 59/1/50
f 14/1/51 13/1/48 45/1/48 46/1/52
f 28/1/53 27/1/49 59/1/50 60/1/54
f 15/1/55 14/1/51 46/1/52 47/1/56
f 2/1/57 1/1/58 33/1/58 34/1/59
f 29/1/60 28/1/53 60/1/54 61/1/60
f 16/1/2 15/1/55 47/1/56 48/1/3
f 3/1/5 2/1/57 34/1/59 35/1/6
f 30/1/9 29/1/60 61/1/60 62/1/10
f 81/1/61 113/1/61 112/1/62 80/1/63
f 68/1/64 100/1/65 99/1/66 67/1/67
f 95/1/68 127/1/69 126/1/70 94/1/71
f 82/1/72 114/1/73 113/1/74 81/1/74
f 69/1/75 101/1/75 100/1/65 68/1/64
f 96/1/76 128/1/77 127/1/69 95/1/68
f 83/1/78 115/1/79 114/1/73 82/1/72
f 70/1/80 102/1/81 101/1/75 69/1/75
f 65/1/82 97/1/82 128/1/77 96/1/76
f 84/1/83 116/1/84 115/1/79 83/1/78
f 71/1/85 103/1/86 102/1/81 70/1/80
f 85/1/87 117/1/87 116/1/84 84/1/83
f 72/1/88 104/1/89 103/1/86 71/1/85
f 86/1/90 118/1/91 117/1/87 85/1/87
f 73/1/92 105/1/92 104/1/89 72/1/88
f 87/1/93 119/1/94 118/1/91 86/1/90
f 74/1/95 106/1/96 105/1/97 73/1/97
f 88/1/98 120/1/99 119/1/94 87/1/93
f 75/1/100 107/1/101 106/1/96 74/1/95
f 89/1/102 121/1/102 120/1/99 88/1/98
f 76/1/103 108/1/104 107/1/101 75/1/100
f 90/1/105 122/1/106 121/1/107 89/1/107
f 77/1/108 109/1/108 108/1/104 76/1/103
f 91/1/109 123/1/110 122/1/106 90/1/105
f 78/1/111 110/1/112 109/1/108 77/1/108
f 92/1/113 124/1/114 123/1/110 91/1/109
f 79/1/115 111/1/116 110/1/112 78/1/111
f 66/1/117 98/1/118 97/1/119 65/1/119
f 93/1/120 125/1/120 124/1/114 92/1/113
f 80/1/63 112/1/62 111/1/116 79/1/115
f 67/1/67 99/1/66 98/1/118 66/1/117
f 94/1/71 126/1/70 125/1/120 93/1/120
f 1/1/121 2/1/122 66/1/123 65/1/121
f 2/1/122 3/1/124 67/1/124 66/1/123
f 3/1/125 4/1/126 68/1/127 67/1/125
f 4/1/126 5/1/128 69/1/128 68/1/127
f 5/1/128 6/1/129 70/1/130 69/1/128
f 6/1/129 7/1/131 71/1/131 70/1/130
f 7/1/132 8/1/133 72/1/134 71/1/132
f 8/1/133 9/1/135 73/1/135 72/1/134
f 9/1/136 10/1/137 74/1/138 73/1/136
f 10/1/137 11/1/139 75/1/139 74/1/138
f 11/1/140 12/1/141 76/1/142 75/1/140
f 12/1/141 13/1/143 77/1/143 76/1/142
f 13/1/143 14/1/144 78/1/145 77/1/143
f 14/1/144 15/1/146 79/1/146 78/1/145
f 15/1/147 16/1/148 80/1/149 79/1/147
f 16/1/148 17/1/150 81/1/150 80/1/149
f 17/1/151 18/1/152 82/1/153 81/1/151
f 18/1/152 19/1/154 83/1/154 82/1/153
f 19/1/155 20/1/156 84/1/157 83/1/155
f 20/1/156 21/1/158 85/1/158 84/1/157
f 21/1/158 22/1/159 86/1/160 85/1/158
f 22/1/159 23/1/161 87/1/161 86/1/160
f 23/1/162 24/1/163 88/1/164 87/1/162
f 24/1/163 25/1/165 89/1/165 88/1/164
f 25/1/166 26/1/167 90/1/168 89/1/166
f 26/1/167 27/1/169 91/1/169 90/1/168
f 27/1/170 28/1/171 92/1/172 91/1/170
f 28/1/171 29/1/173 93/1/173 92/1/172
f 29/1/173 30/1/174 94/1/175 93/1/173
f 30/1/174 31/1/176 95/1/176 94/1/175
f 31/1/177 32/1/178 96/1/179 95/1/177
f 32/1/178 1/1/180 65/1/180 96/1/179
f 34/1/181 33/1/182 97/1/182 98/1/183
f 35/1/184 34/1/181 98/1/183 99/1/184
f 36/1/185 35/1/186 99/1/186 100/1/187
f 37/1/188 36/1/185 100/1/187 101/1/188
f 38/1/189 37/1/188 101/1/188 102/1/190
f 39/1/191 38/1/189 102/1/190 103/1/191
f 40/1/192 39/1/193 103/1/193 104/1/194
f 41/1/195 40/1/192 104/1/194 105/1/195
f 42/1/196 41/1/197 105/1/197 106/1/198
f 43/1/199 42/1/196 106/1/198 107/1/199
f 44/1/200 43/1/201 107/1/201 108/1/202
f 45/1/203 44/1/200 108/1/202 109/1/203
f 46/1/204 45/1/203 109/1/203 110/1/205
f 47/1/206 46/1/204 110/1/205 111/1/206
f 48/1/207 47/1/208 111/1/208 112/1/209
f 49/1/210 48/1/207 112/1/209 113/1/210
f 50/1/211 49/1/212 113/1/212 114/1/213
f 51/1/214 50/1/211 114/1/213 115/1/214
f 52/1/215 51/1/216 115/1/216 116/1/217
f 53/1/218 52/1/215 116/1/217 117/1/218
f 54/1/219 53/1/218 117/1/218 118/1/220
f 55/1/221 54/1/219 118/1/220 119/1/221
f 56/1/222 55/1/223 119/1/223 120/1/224
f 57/1/225 56/1/222 120/1/224 121/1/225
f 58/1/226 57/1/227 121/1/227 122/1/228
f 59/1/229 58/1/226 122/1/228 123/1/229
f 60/1/230 59/1/231 123/1/231 124/1/232
f 61/1/233 60/1/230 124/1/232 125/1/233
f 62/1/234 61/1/233 125/1/233 126/1/235
f 63/1/236 62/1/234 126/1/235 127/1/236
f 64/1/237 63/1/238 127/1/238 128/1/239
f 33/1/240 64/1/237 128/1/239 97/1/240
