# Blender 4.0.2
# www.blender.org
mtllib UI_3.mtl
o Circle.003
v -0.000000 -0.007350 -0.124776
v -0.019981 -0.006467 -0.100449
v -0.047750 -0.007350 -0.115278
v -0.056900 -0.006467 -0.085157
v -0.088230 -0.007350 -0.088230
v -0.085157 -0.006467 -0.056900
v -0.115278 -0.007350 -0.047750
v -0.100449 -0.006467 -0.019981
v -0.124776 -0.007350 0.000000
v -0.100449 -0.006467 0.019981
v -0.115278 -0.007350 0.047750
v -0.085157 -0.006467 0.056900
v -0.088230 -0.007350 0.088230
v -0.056900 -0.006467 0.085157
v -0.047750 -0.007350 0.115278
v -0.019981 -0.006467 0.100449
v -0.000000 -0.007350 0.124776
v 0.019981 -0.006467 0.100449
v 0.047750 -0.007350 0.115278
v 0.056900 -0.006467 0.085157
v 0.088230 -0.007350 0.088230
v 0.085157 -0.006467 0.056900
v 0.115278 -0.007350 0.047750
v 0.100449 -0.006467 0.019981
v 0.124776 -0.007350 0.000000
v 0.100449 -0.006467 -0.019981
v 0.115278 -0.007350 -0.047750
v 0.085157 -0.006467 -0.056900
v 0.088230 -0.007350 -0.088230
v 0.056900 -0.006467 -0.085157
v 0.047750 -0.007350 -0.115278
v 0.019981 -0.006467 -0.100449
v 0.000000 0.001351 -0.076640
v -0.019461 0.001894 -0.097839
v -0.029329 0.001351 -0.070806
v -0.055421 0.001894 -0.082944
v -0.054193 0.001351 -0.054193
v -0.082944 0.001894 -0.055421
v -0.070806 0.001351 -0.029329
v -0.097839 0.001894 -0.019461
v -0.076640 0.001351 0.000000
v -0.097839 0.001894 0.019461
v -0.070806 0.001351 0.029329
v -0.082944 0.001894 0.055421
v -0.054193 0.001351 0.054193
v -0.055421 0.001894 0.082944
v -0.029329 0.001351 0.070806
v -0.019461 0.001894 0.097839
v 0.000000 0.001351 0.076640
v 0.019461 0.001894 0.097839
v 0.029329 0.001351 0.070806
v 0.055421 0.001894 0.082944
v 0.054193 0.001351 0.054193
v 0.082944 0.001894 0.055421
v 0.070806 0.001351 0.029329
v 0.097839 0.001894 0.019461
v 0.076640 0.001351 0.000000
v 0.097839 0.001894 -0.019461
v 0.070806 0.001351 -0.029329
v 0.082944 0.001894 -0.055421
v 0.054193 0.001351 -0.054193
v 0.055421 0.001894 -0.082944
v 0.029329 0.001351 -0.070806
v 0.019461 0.001894 -0.097839
v -0.000000 0.000203 -0.127316
v -0.020465 0.001104 -0.102886
v -0.048722 0.000203 -0.117625
v -0.058280 0.001104 -0.087223
v -0.090026 0.000203 -0.090026
v -0.087223 0.001104 -0.058280
v -0.117625 0.000203 -0.048722
v -0.102886 0.001104 -0.020465
v -0.127316 0.000203 0.000000
v -0.102886 0.001104 0.020465
v -0.117625 0.000203 0.048722
v -0.087223 0.001104 0.058280
v -0.090026 0.000203 0.090026
v -0.058280 0.001104 0.087223
v -0.048722 0.000203 0.117625
v -0.020465 0.001104 0.102886
v -0.000000 0.000203 0.127316
v 0.020465 0.001104 0.102886
v 0.048722 0.000203 0.117625
v 0.058280 0.001104 0.087223
v 0.090026 0.000203 0.090026
v 0.087223 0.001104 0.058280
v 0.117625 0.000203 0.048722
v 0.102886 0.001104 0.020465
v 0.127316 0.000203 0.000000
v 0.102886 0.001104 -0.020465
v 0.117625 0.000203 -0.048722
v 0.087223 0.001104 -0.058280
v 0.090026 0.000203 -0.090026
v 0.058280 0.001104 -0.087223
v 0.048722 0.000203 -0.117625
v 0.020465 0.001104 -0.102886
v 0.000000 0.008904 -0.079180
v -0.019946 0.009465 -0.100276
v -0.030301 0.008904 -0.073153
v -0.056802 0.009465 -0.085010
v -0.055989 0.008904 -0.055989
v -0.085010 0.009465 -0.056802
v -0.073153 0.008904 -0.030301
v -0.100276 0.009465 -0.019946
v -0.079180 0.008904 0.000000
v -0.100276 0.009465 0.019946
v -0.073153 0.008904 0.030301
v -0.085010 0.009465 0.056802
v -0.055989 0.008904 0.055989
v -0.056802 0.009465 0.085010
v -0.030301 0.008904 0.073153
v -0.019946 0.009465 0.100276
v 0.000000 0.008904 0.079180
v 0.019946 0.009465 0.100276
v 0.030301 0.008904 0.073153
v 0.056802 0.009465 0.085010
v 0.055989 0.008904 0.055989
v 0.085010 0.009465 0.056802
v 0.073153 0.008904 0.030301
v 0.100276 0.009465 0.019946
v 0.079180 0.008904 0.000000
v 0.100276 0.009465 -0.019946
v 0.073153 0.008904 -0.030301
v 0.085010 0.009465 -0.056802
v 0.055989 0.008904 -0.055989
v 0.056802 0.009465 -0.085010
v 0.030301 0.008904 -0.073153
v 0.019946 0.009465 -0.100276
vn -0.0000 -0.9478 -0.3188
vn 0.0608 -0.9502 -0.3057
vn 0.1732 -0.9502 0.2591
vn 0.1220 -0.9478 0.2945
vn -0.1220 -0.9478 0.2945
vn -0.1732 -0.9502 0.2591
vn -0.0608 -0.9502 -0.3057
vn 0.2254 -0.9478 0.2254
vn -0.0608 -0.9502 0.3057
vn -0.1220 -0.9478 -0.2945
vn 0.2591 -0.9502 0.1732
vn -0.0000 -0.9478 0.3188
vn -0.1732 -0.9502 -0.2591
vn 0.2945 -0.9478 0.1220
vn -0.2254 -0.9478 -0.2254
vn 0.3057 -0.9502 0.0608
vn -0.2591 -0.9502 -0.1732
vn 0.3188 -0.9478 -0.0000
vn -0.2945 -0.9478 -0.1220
vn 0.3057 -0.9502 -0.0608
vn -0.3057 -0.9502 -0.0608
vn 0.2945 -0.9478 -0.1220
vn -0.3188 -0.9478 -0.0000
vn 0.2591 -0.9502 -0.1732
vn -0.3057 -0.9502 0.0608
vn 0.2254 -0.9478 -0.2254
vn -0.2945 -0.9478 0.1220
vn 0.1732 -0.9502 -0.2591
vn -0.2591 -0.9502 0.1732
vn 0.1220 -0.9478 -0.2945
vn 0.0608 -0.9502 0.3057
vn -0.2254 -0.9478 0.2254
vn -0.0000 0.9478 0.3188
vn -0.0608 0.9501 0.3058
vn -0.1732 0.9501 -0.2593
vn -0.1220 0.9478 -0.2945
vn 0.1220 0.9478 -0.2945
vn 0.1732 0.9501 -0.2593
vn 0.0608 0.9501 0.3058
vn -0.2254 0.9478 -0.2254
vn 0.0608 0.9501 -0.3058
vn 0.1220 0.9478 0.2945
vn -0.2593 0.9501 -0.1732
vn -0.0000 0.9478 -0.3188
vn 0.1732 0.9501 0.2593
vn -0.2945 0.9478 -0.1220
vn 0.2254 0.9478 0.2254
vn -0.3058 0.9501 -0.0608
vn 0.2593 0.9501 0.1732
vn -0.3188 0.9478 -0.0000
vn 0.2945 0.9478 0.1220
vn -0.3058 0.9501 0.0608
vn 0.3058 0.9501 0.0608
vn -0.2945 0.9478 0.1220
vn 0.3188 0.9478 -0.0000
vn -0.2593 0.9501 0.1732
vn 0.3058 0.9501 -0.0608
vn -0.2254 0.9478 0.2254
vn 0.2945 0.9478 -0.1220
vn -0.1732 0.9501 0.2593
vn 0.2593 0.9501 -0.1732
vn -0.1220 0.9478 0.2945
vn -0.0608 0.9501 -0.3058
vn 0.2254 0.9478 -0.2254
vn -0.7536 -0.2271 -0.6168
vn 0.4602 -0.2271 -0.8583
vn -0.9323 -0.2271 -0.2815
vn 0.0967 -0.2271 -0.9690
vn -0.9690 -0.2271 0.0967
vn -0.2815 -0.2271 -0.9323
vn -0.8583 -0.2271 0.4602
vn -0.6168 -0.2271 -0.7536
vn -0.6168 -0.2271 0.7536
vn -0.8583 -0.2271 -0.4602
vn -0.2815 -0.2271 0.9323
vn -0.9690 -0.2271 -0.0967
vn 0.0967 -0.2271 0.9690
vn -0.9323 -0.2271 0.2815
vn 0.4602 -0.2271 0.8583
vn -0.7536 -0.2271 0.6168
vn 0.7536 -0.2271 0.6168
vn -0.4602 -0.2271 0.8583
vn 0.9323 -0.2271 0.2815
vn -0.0967 -0.2271 0.9690
vn 0.9690 -0.2271 -0.0967
vn 0.2815 -0.2271 0.9323
vn 0.8583 -0.2271 -0.4602
vn 0.6168 -0.2271 0.7536
vn 0.6168 -0.2271 -0.7536
vn 0.8583 -0.2271 0.4602
vn 0.2815 -0.2271 -0.9323
vn 0.9690 -0.2271 0.0967
vn -0.0967 -0.2271 -0.9690
vn 0.9323 -0.2271 -0.2815
vn -0.4602 -0.2271 -0.8583
vn 0.7536 -0.2271 -0.6168
vn -0.7146 0.1979 0.6710
vn 0.9170 0.1979 0.3464
vn -0.4034 0.1979 0.8934
vn 0.9797 0.1979 -0.0308
vn -0.0308 0.1979 0.9797
vn 0.8934 0.1979 -0.4034
vn 0.3464 0.1979 0.9170
vn 0.6710 0.1979 -0.7146
vn 0.6710 0.1979 0.7146
vn 0.3464 0.1979 -0.9170
vn 0.8934 0.1979 0.4034
vn -0.0308 0.1979 -0.9797
vn 0.9797 0.1979 0.0308
vn -0.4034 0.1979 -0.8934
vn 0.9170 0.1979 -0.3464
vn -0.7146 0.1979 -0.6710
vn 0.7146 0.1979 -0.6710
vn -0.9170 0.1979 -0.3464
vn 0.4034 0.1979 -0.8934
vn -0.9797 0.1979 0.0308
vn 0.0308 0.1979 -0.9797
vn -0.8934 0.1979 0.4034
vn -0.3464 0.1979 -0.9170
vn -0.6710 0.1979 0.7146
vn -0.6710 0.1979 -0.7146
vn -0.3464 0.1979 0.9170
vn -0.8934 0.1979 -0.4034
vn 0.0308 0.1979 0.9797
vn -0.9797 0.1979 -0.0308
vn 0.4034 0.1979 0.8934
vn -0.9170 0.1979 0.3464
vn 0.7146 0.1979 0.6710
vt 0.000000 0.000000
s 1
f 17/1/1 16/1/2 48/1/2 49/1/1
f 4/1/3 3/1/4 35/1/4 36/1/3
f 31/1/5 30/1/6 62/1/6 63/1/5
f 18/1/7 17/1/1 49/1/1 50/1/7
f 5/1/8 4/1/3 36/1/3 37/1/8
f 32/1/9 31/1/5 63/1/5 64/1/9
f 19/1/10 18/1/7 50/1/7 51/1/10
f 6/1/11 5/1/8 37/1/8 38/1/11
f 1/1/12 32/1/9 64/1/9 33/1/12
f 20/1/13 19/1/10 51/1/10 52/1/13
f 7/1/14 6/1/11 38/1/11 39/1/14
f 21/1/15 20/1/13 52/1/13 53/1/15
f 8/1/16 7/1/14 39/1/14 40/1/16
f 22/1/17 21/1/15 53/1/15 54/1/17
f 9/1/18 8/1/16 40/1/16 41/1/18
f 23/1/19 22/1/17 54/1/17 55/1/19
f 10/1/20 9/1/18 41/1/18 42/1/20
f 24/1/21 23/1/19 55/1/19 56/1/21
f 11/1/22 10/1/20 42/1/20 43/1/22
f 25/1/23 24/1/21 56/1/21 57/1/23
f 12/1/24 11/1/22 43/1/22 44/1/24
f 26/1/25 25/1/23 57/1/23 58/1/25
f 13/1/26 12/1/24 44/1/24 45/1/26
f 27/1/27 26/1/25 58/1/25 59/1/27
f 14/1/28 13/1/26 45/1/26 46/1/28
f 28/1/29 27/1/27 59/1/27 60/1/29
f 15/1/30 14/1/28 46/1/28 47/1/30
f 2/1/31 1/1/12 33/1/12 34/1/31
f 29/1/32 28/1/29 60/1/29 61/1/32
f 16/1/2 15/1/30 47/1/30 48/1/2
f 3/1/4 2/1/31 34/1/31 35/1/4
f 30/1/6 29/1/32 61/1/32 62/1/6
f 81/1/33 113/1/33 112/1/34 80/1/34
f 68/1/35 100/1/35 99/1/36 67/1/36
f 95/1/37 127/1/37 126/1/38 94/1/38
f 82/1/39 114/1/39 113/1/33 81/1/33
f 69/1/40 101/1/40 100/1/35 68/1/35
f 96/1/41 128/1/41 127/1/37 95/1/37
f 83/1/42 115/1/42 114/1/39 82/1/39
f 70/1/43 102/1/43 101/1/40 69/1/40
f 65/1/44 97/1/44 128/1/41 96/1/41
f 84/1/45 116/1/45 115/1/42 83/1/42
f 71/1/46 103/1/46 102/1/43 70/1/43
f 85/1/47 117/1/47 116/1/45 84/1/45
f 72/1/48 104/1/48 103/1/46 71/1/46
f 86/1/49 118/1/49 117/1/47 85/1/47
f 73/1/50 105/1/50 104/1/48 72/1/48
f 87/1/51 119/1/51 118/1/49 86/1/49
f 74/1/52 106/1/52 105/1/50 73/1/50
f 88/1/53 120/1/53 119/1/51 87/1/51
f 75/1/54 107/1/54 106/1/52 74/1/52
f 89/1/55 121/1/55 120/1/53 88/1/53
f 76/1/56 108/1/56 107/1/54 75/1/54
f 90/1/57 122/1/57 121/1/55 89/1/55
f 77/1/58 109/1/58 108/1/56 76/1/56
f 91/1/59 123/1/59 122/1/57 90/1/57
f 78/1/60 110/1/60 109/1/58 77/1/58
f 92/1/61 124/1/61 123/1/59 91/1/59
f 79/1/62 111/1/62 110/1/60 78/1/60
f 66/1/63 98/1/63 97/1/44 65/1/44
f 93/1/64 125/1/64 124/1/61 92/1/61
f 80/1/34 112/1/34 111/1/62 79/1/62
f 67/1/36 99/1/36 98/1/63 66/1/63
f 94/1/38 126/1/38 125/1/64 93/1/64
f 1/1/65 2/1/65 66/1/65 65/1/65
f 2/1/66 3/1/66 67/1/66 66/1/66
f 3/1/67 4/1/67 68/1/67 67/1/67
f 4/1/68 5/1/68 69/1/68 68/1/68
f 5/1/69 6/1/69 70/1/69 69/1/69
f 6/1/70 7/1/70 71/1/70 70/1/70
f 7/1/71 8/1/71 72/1/71 71/1/71
f 8/1/72 9/1/72 73/1/72 72/1/72
f 9/1/73 10/1/73 74/1/73 73/1/73
f 10/1/74 11/1/74 75/1/74 74/1/74
f 11/1/75 12/1/75 76/1/75 75/1/75
f 12/1/76 13/1/76 77/1/76 76/1/76
f 13/1/77 14/1/77 78/1/77 77/1/77
f 14/1/78 15/1/78 79/1/78 78/1/78
f 15/1/79 16/1/79 80/1/79 79/1/79
f 16/1/80 17/1/80 81/1/80 80/1/80
f 17/1/81 18/1/81 82/1/81 81/1/81
f 18/1/82 19/1/82 83/1/82 82/1/82
f 19/1/83 20/1/83 84/1/83 83/1/83
f 20/1/84 21/1/84 85/1/84 84/1/84
f 21/1/85 22/1/85 86/1/85 85/1/85
f 22/1/86 23/1/86 87/1/86 86/1/86
f 23/1/87 24/1/87 88/1/87 87/1/87
f 24/1/88 25/1/88 89/1/88 88/1/88
f 25/1/89 26/1/89 90/1/89 89/1/89
f 26/1/90 27/1/90 91/1/90 90/1/90
f 27/1/91 28/1/91 92/1/91 91/1/91
f 28/1/92 29/1/92 93/1/92 92/1/92
f 29/1/93 30/1/93 94/1/93 93/1/93
f 30/1/94 31/1/94 95/1/94 94/1/94
f 31/1/95 32/1/95 96/1/95 95/1/95
f 32/1/96 1/1/96 65/1/96 96/1/96
f 34/1/97 33/1/97 97/1/97 98/1/97
f 35/1/98 34/1/98 98/1/98 99/1/98
f 36/1/99 35/1/99 99/1/99 100/1/99
f 37/1/100 36/1/100 100/1/100 101/1/100
f 38/1/101 37/1/101 101/1/101 102/1/101
f 39/1/102 38/1/102 102/1/102 103/1/102
f 40/1/103 39/1/103 103/1/103 104/1/103
f 41/1/104 40/1/104 104/1/104 105/1/104
f 42/1/105 41/1/105 105/1/105 106/1/105
f 43/1/106 42/1/106 106/1/106 107/1/106
f 44/1/107 43/1/107 107/1/107 108/1/107
f 45/1/108 44/1/108 108/1/108 109/1/108
f 46/1/109 45/1/109 109/1/109 110/1/109
f 47/1/110 46/1/110 110/1/110 111/1/110
f 48/1/111 47/1/111 111/1/111 112/1/111
f 49/1/112 48/1/112 112/1/112 113/1/112
f 50/1/113 49/1/113 113/1/113 114/1/113
f 51/1/114 50/1/114 114/1/114 115/1/114
f 52/1/115 51/1/115 115/1/115 116/1/115
f 53/1/116 52/1/116 116/1/116 117/1/116
f 54/1/117 53/1/117 117/1/117 118/1/117
f 55/1/118 54/1/118 118/1/118 119/1/118
f 56/1/119 55/1/119 119/1/119 120/1/119
f 57/1/120 56/1/120 120/1/120 121/1/120
f 58/1/121 57/1/121 121/1/121 122/1/121
f 59/1/122 58/1/122 122/1/122 123/1/122
f 60/1/123 59/1/123 123/1/123 124/1/123
f 61/1/124 60/1/124 124/1/124 125/1/124
f 62/1/125 61/1/125 125/1/125 126/1/125
f 63/1/126 62/1/126 126/1/126 127/1/126
f 64/1/127 63/1/127 127/1/127 128/1/127
f 33/1/128 64/1/128 128/1/128 97/1/128
